<svg width="25" height="25" viewBox="0 0 25 25" fill="none" xmlns="http://www.w3.org/2000/svg">
<path fill-rule="evenodd" clip-rule="evenodd" d="M13.0001 3C9.4755 3 6.61824 5.81465 6.61824 9.28686V11.542C6.61824 13.5323 6.19331 15.5004 5.37091 17.3184L5.07446 17.974C4.82431 18.5268 5.23507 19.15 5.8495 19.15H9.65902C9.89302 20.7613 11.2997 22 13 22C14.7005 22 16.1072 20.7613 16.3411 19.15H20.1507C20.7651 19.15 21.1757 18.5268 20.9255 17.974L20.6291 17.3184C19.8069 15.5004 19.3817 13.5323 19.3817 11.542V9.28686C19.3817 5.81474 16.5247 3 13.0001 3ZM15.3629 19.1498H10.6376C10.861 20.234 11.834 21.0498 13.0002 21.0498C14.1667 21.0498 15.1394 20.234 15.3629 19.1498ZM7.58268 9.2864C7.58268 6.33898 10.0081 3.94945 13.0002 3.94945C15.9922 3.94945 18.4178 6.33879 18.4178 9.2864V11.5416C18.4178 13.6652 18.8713 15.765 19.7486 17.7049L19.9726 18.1997H6.02829L6.25225 17.7049C7.12959 15.7651 7.58305 13.6653 7.58305 11.5416L7.58268 9.2864Z" fill="black"/>
</svg>
