<svg width="22" height="22" viewBox="0 0 22 22" fill="none" xmlns="http://www.w3.org/2000/svg">
<g clip-path="url(#clip0_2008_12958)">
<path d="M10.9968 0.834961C5.36836 0.834961 0.822266 5.38105 0.822266 11.0095C0.822266 16.638 5.36836 21.1841 10.9968 21.1841C16.6253 21.1841 21.1714 16.638 21.1714 11.0095C21.1716 5.38105 16.6253 0.834961 10.9968 0.834961ZM10.9968 19.8852C6.10441 19.8852 2.12121 15.902 2.12121 11.0095C2.12121 6.11711 6.10437 2.13391 10.9968 2.13391C15.8893 2.13391 19.8725 6.11707 19.8725 11.0095C19.8723 15.902 15.8891 19.8852 10.9968 19.8852Z" fill="black"/>
<path d="M15.0891 7.37275L10.2182 12.871L7.46885 10.663C7.10076 10.3599 6.55963 10.4248 6.25648 10.7929C5.95335 11.161 6.01831 11.7021 6.38639 12.0053L9.78514 14.7113C9.9367 14.8412 10.1316 14.9062 10.3263 14.9062C10.5645 14.9062 10.8025 14.7979 10.9757 14.6247L16.4095 8.52014C16.7343 8.15205 16.691 7.61092 16.3445 7.30778C15.955 6.98299 15.4138 7.0263 15.089 7.37273L15.0891 7.37275Z" fill="black"/>
</g>
<defs>
<clipPath id="clip0_2008_12958">
<rect width="22" height="22" fill="white"/>
</clipPath>
</defs>
</svg>
