<svg width="25" height="25" viewBox="0 0 25 25" fill="none" xmlns="http://www.w3.org/2000/svg">
<path d="M3.44438 6.33962C3.68223 6.57746 3.91759 6.81283 4.15542 7.05065L9.68325 12.5785C9.97145 12.8667 10.2694 13.1478 10.548 13.4433C10.5528 13.448 10.5553 13.4505 10.5601 13.4553H9.54155C9.98368 13.0132 10.4256 12.5713 10.8677 12.1291C11.5715 11.4253 12.2755 10.7213 12.9818 10.015L13.4648 9.53207C13.741 9.25589 14.2071 9.25589 14.4833 9.53207C14.7524 9.8012 15.0238 10.0726 15.2929 10.3417C15.9344 10.9832 16.5781 11.6269 17.2196 12.2684C18.0027 13.0515 18.7834 13.8322 19.5667 14.6155L21.5799 16.6287C21.9091 16.9579 22.2429 17.2797 22.5649 17.6137C22.5696 17.6184 22.5744 17.6232 22.5794 17.6282C22.846 17.8948 22.8653 18.385 22.5794 18.6467C22.2912 18.9108 21.8443 18.9326 21.5609 18.6467C21.2917 18.3775 21.0203 18.1061 20.7512 17.837C20.1097 17.1955 19.466 16.5518 18.8246 15.9104C18.0414 15.1272 17.2608 14.3466 16.4774 13.5632L14.4642 11.55C14.135 11.2208 13.7965 10.9014 13.4793 10.5651L13.4648 10.5506H14.4833L13.1571 11.8767C12.4533 12.5806 11.7493 13.2846 11.043 13.9909C10.882 14.1518 10.721 14.3128 10.5601 14.4738C10.2839 14.75 9.81772 14.75 9.54155 14.4738C9.30371 14.236 9.06834 14.0006 8.83052 13.7628C8.26597 13.1982 7.69907 12.6313 7.13452 12.0668C6.44751 11.3798 5.76045 10.6927 5.07573 10.008L3.30283 8.23508C3.01464 7.94688 2.719 7.66325 2.43804 7.37028C2.43327 7.36552 2.43079 7.36304 2.42602 7.35827C2.15938 7.09162 2.14011 6.60143 2.42602 6.33976C2.71175 6.07559 3.15864 6.05404 3.44453 6.33976L3.44438 6.33962Z" fill="black"/>
<path d="M16.7702 17.4192H18.5575H21.4092H22.0699L21.3491 18.14V16.3527V13.501V12.8403C21.3491 12.4632 21.6806 12.1028 22.0699 12.1195C22.4615 12.1363 22.7907 12.4367 22.7907 12.8403V14.6277V17.4793V18.14C22.7907 18.5291 22.4615 18.8608 22.0699 18.8608H20.2825H17.4309H16.7702C16.3931 18.8608 16.0326 18.5293 16.0494 18.14C16.0664 17.7483 16.3666 17.4192 16.7702 17.4192Z" fill="black"/>
</svg>
