<svg width="25" height="25" viewBox="0 0 25 25" fill="none" xmlns="http://www.w3.org/2000/svg">
<path d="M19.7135 12.4999C19.7135 12.6629 19.6486 12.8193 19.5334 12.9347C19.418 13.0499 19.2616 13.1148 19.0985 13.1148H5.90225C5.56255 13.1148 5.28711 12.8394 5.28711 12.4998C5.28711 12.1601 5.56253 11.8847 5.90225 11.8847H19.0985C19.2616 11.8847 19.418 11.9496 19.5334 12.0649C19.6486 12.1802 19.7135 12.3366 19.7135 12.4999ZM5.90243 7.91611H19.0987C19.4382 7.91611 19.7137 7.64069 19.7137 7.30098C19.7137 6.96147 19.4382 6.68604 19.0987 6.68604H5.90243C5.56273 6.68604 5.28729 6.96145 5.28729 7.30098C5.28729 7.64067 5.56271 7.91611 5.90243 7.91611ZM19.0987 17.0836H5.90243C5.56273 17.0836 5.28729 17.3588 5.28729 17.6985C5.28729 18.0382 5.56271 18.3135 5.90243 18.3135H19.0987C19.4382 18.3135 19.7137 18.0382 19.7137 17.6985C19.7137 17.3588 19.4382 17.0836 19.0987 17.0836Z" fill="black"/>
</svg>
