<svg width="25" height="25" viewBox="0 0 25 25" fill="none" xmlns="http://www.w3.org/2000/svg">
<path d="M3.44438 18.655C3.68223 18.4172 3.91759 18.1818 4.15542 17.944L9.68325 12.4161C9.97145 12.1279 10.2694 11.8468 10.548 11.5514C10.5528 11.5466 10.5553 11.5441 10.5601 11.5393H9.54155C9.98368 11.9815 10.4256 12.4234 10.8677 12.8655C11.5715 13.5693 12.2755 14.2733 12.9818 14.9796L13.4648 15.4626C13.741 15.7387 14.2071 15.7387 14.4833 15.4626C14.7524 15.1934 15.0238 14.922 15.2929 14.6529C15.9344 14.0114 16.5781 13.3677 17.2196 12.7263C18.0027 11.9431 18.7834 11.1625 19.5667 10.3791L21.5799 8.36593C21.9091 8.03672 22.2429 7.71495 22.5649 7.38097C22.5696 7.3762 22.5744 7.37143 22.5794 7.36647C22.846 7.09982 22.8653 6.60963 22.5794 6.34796C22.2912 6.08379 21.8443 6.06205 21.5609 6.34796C21.2917 6.61709 21.0203 6.88849 20.7512 7.15763C20.1097 7.79909 19.466 8.44279 18.8246 9.08424C18.0414 9.8674 17.2608 10.6481 16.4774 11.4314L14.4642 13.4446C14.135 13.7738 13.7965 14.0933 13.4793 14.4296L13.4648 14.4441H14.4833L13.1571 13.1179C12.4533 12.4141 11.7493 11.7101 11.043 11.0038C10.882 10.8428 10.721 10.6818 10.5601 10.5208C10.2839 10.2446 9.81772 10.2446 9.54155 10.5208C9.30371 10.7587 9.06834 10.994 8.83052 11.2319C8.26597 11.7964 7.69907 12.3633 7.13452 12.9279C6.44751 13.6149 5.76045 14.3019 5.07573 14.9866L3.30283 16.7595C3.01464 17.0477 2.719 17.3314 2.43804 17.6243C2.43327 17.6291 2.43079 17.6316 2.42602 17.6364C2.15938 17.903 2.14011 18.3932 2.42602 18.6549C2.71175 18.919 3.15864 18.9406 3.44453 18.6549L3.44438 18.655Z" fill="black"/>
<path d="M16.7702 7.57539H18.5575H21.4092H22.0699L21.3491 6.85459V8.64194V11.4936V12.1543C21.3491 12.5314 21.6806 12.8918 22.0699 12.8751C22.4615 12.8583 22.7907 12.5579 22.7907 12.1543V10.3669V7.51528V6.85459C22.7907 6.46549 22.4615 6.13379 22.0699 6.13379H20.2825H17.4309H16.7702C16.3931 6.13379 16.0326 6.46529 16.0494 6.85459C16.0664 7.24636 16.3666 7.57539 16.7702 7.57539Z" fill="black"/>
</svg>
