<svg width="30" height="30" viewBox="0 0 30 30" fill="none" xmlns="http://www.w3.org/2000/svg">
<path fill-rule="evenodd" clip-rule="evenodd" d="M19.1615 11.4174V5.10727C19.1615 4.15716 18.3882 3.38379 17.4379 3.38379H4.22346C3.27336 3.38379 2.5 4.15716 2.5 5.10727V15.5599C2.5 15.584 2.50043 15.6081 2.50128 15.6317C2.50043 15.6471 2.5 15.6624 2.5 15.6778V21.4895C2.5 22.4398 3.27336 23.2132 4.22346 23.2132H4.80533C5.12218 23.2132 5.39468 22.9996 5.48316 22.6976C5.88828 21.2686 7.20662 20.2741 8.69471 20.2741C10.1826 20.2741 11.5011 21.2686 11.9062 22.6976C11.9873 22.9996 12.2672 23.2132 12.5839 23.2132H17.4233C17.7402 23.2132 18.0127 22.9996 18.1012 22.6976C18.5063 21.2686 19.8246 20.2741 21.3127 20.2741C22.8006 20.2741 24.1191 21.2686 24.5243 22.6976C24.6053 22.9996 24.8852 23.2132 25.2019 23.2132H25.7838C26.7341 23.2132 27.5074 22.4398 27.4999 21.497V18.5285C27.4999 17.4014 27.1245 16.2376 26.4688 15.3241L24.5758 12.687C24.1485 12.0904 22.9773 11.3758 22.1595 11.3758H22.1448L19.1615 11.4174ZM19.1536 15.7245C19.1328 16.6565 18.3675 17.4087 17.4306 17.4087H4.21622C4.11302 17.4087 4.00983 17.4013 3.90684 17.3791V21.4969C3.90684 21.6662 4.04671 21.8063 4.21622 21.8063H4.28979C5.01178 20.0532 6.75014 18.8672 8.68003 18.8672C10.6099 18.8672 12.3483 20.0532 13.0701 21.8063H16.9079C17.6296 20.0532 19.368 18.8672 21.2979 18.8672C23.2427 18.8597 24.9811 20.0385 25.7028 21.7988H25.7766C25.9459 21.7988 26.086 21.659 26.086 21.4894V18.5209C26.086 17.6885 25.806 16.8194 25.3199 16.149L23.4267 13.512C23.2132 13.2174 22.4618 12.79 22.1597 12.79L19.1618 12.8342V15.5596C19.1618 15.6153 19.159 15.6703 19.1536 15.7245ZM17.7472 5.10706C17.7472 4.93775 17.6073 4.79766 17.4378 4.79766H4.22343C4.05413 4.79766 3.91404 4.93775 3.91404 5.10706V15.5597C3.91404 15.7292 4.05413 15.869 4.22343 15.869H17.4378C17.6073 15.869 17.7472 15.7292 17.7472 15.5597V5.10706Z" fill="black"/>
<path fill-rule="evenodd" clip-rule="evenodd" d="M18.5215 23.8245C18.5215 25.3642 19.7735 26.6163 21.3132 26.6163C22.8527 26.6163 24.1049 25.3568 24.1049 23.8245C24.1049 22.285 22.8527 21.0327 21.3132 21.0327C19.7735 21.0327 18.5215 22.285 18.5215 23.8245ZM19.9283 23.8172C19.9283 23.0586 20.5543 22.4398 21.3132 22.4398C22.0718 22.4398 22.6906 23.0586 22.6978 23.8172C22.6978 24.5834 22.079 25.2021 21.3132 25.2021C20.5471 25.2021 19.9283 24.5759 19.9283 23.8172Z" fill="black"/>
<path fill-rule="evenodd" clip-rule="evenodd" d="M8.69408 26.6163C7.15463 26.6163 5.90234 25.3642 5.90234 23.8245C5.90234 22.285 7.15457 21.0327 8.69408 21.0327C10.2336 21.0327 11.4858 22.285 11.4858 23.8245C11.4858 25.3567 10.2336 26.6163 8.69408 26.6163ZM8.69408 22.4398C7.93546 22.4398 7.31669 23.0586 7.31669 23.8172C7.31669 24.5759 7.93546 25.2021 8.69408 25.2021C9.4527 25.2021 10.0789 24.5833 10.0789 23.8172C10.0715 23.0586 9.4527 22.4398 8.69408 22.4398Z" fill="black"/>
</svg>
