<svg width="22" height="22" viewBox="0 0 22 22" fill="none" xmlns="http://www.w3.org/2000/svg">
<path d="M11.0006 1.138C8.38501 1.138 5.87654 2.17715 4.02716 4.02648C2.17783 5.87599 1.13867 8.38438 1.13867 10.9999C1.13867 13.6154 2.17783 16.1239 4.02716 17.9733C5.87666 19.8228 8.38505 20.8618 11.0006 20.8618C13.6161 20.8618 16.1246 19.8228 17.974 17.9733C19.8235 16.1238 20.8624 13.6154 20.8624 10.9999C20.8586 8.38549 19.8184 5.8793 17.9698 4.03035C16.1211 2.18184 13.6149 1.14156 11.0007 1.1377L11.0006 1.138ZM11.0006 19.4186V19.4188C8.76769 19.4188 6.62634 18.5317 5.04767 16.9529C3.46891 15.3742 2.58199 13.2328 2.58199 11.0001C2.58199 8.76718 3.46891 6.62583 5.04767 5.04716C6.6266 3.4684 8.76782 2.58148 11.0006 2.58148C13.2333 2.58148 15.3748 3.4684 16.9534 5.04716C18.5322 6.62609 19.4193 8.76731 19.4193 11.0001C19.4166 13.2319 18.5289 15.3717 16.9506 16.9499C15.3724 18.5282 13.2325 19.416 11.0007 19.4186L11.0006 19.4186Z" fill="black"/>
<path d="M13.1229 3.57248C12.9411 3.5186 12.7454 3.53908 12.5786 3.62921C12.4117 3.71934 12.2875 3.87191 12.233 4.05352L10.3664 10.5959L6.67659 13.824C6.53325 13.9507 6.44581 14.1291 6.43322 14.32C6.42063 14.511 6.48391 14.6991 6.60929 14.8438C6.73618 14.9871 6.91444 15.0746 7.10545 15.0872C7.29629 15.0998 7.48461 15.0365 7.62915 14.9111L11.4777 11.5436C11.5821 11.4518 11.6575 11.3314 11.6942 11.1973L13.6184 4.46241C13.6718 4.27862 13.6493 4.08123 13.5563 3.91404C13.4631 3.74687 13.3072 3.624 13.1229 3.57248Z" fill="black"/>
</svg>
