<svg width="35" height="35" viewBox="0 0 35 35" fill="none" xmlns="http://www.w3.org/2000/svg">
<path d="M17.2702 10.2628C17.0041 10.2628 16.7491 10.3683 16.5612 10.5564C16.3731 10.7443 16.2676 10.9993 16.2676 11.2654V17.2808C16.2676 17.5466 16.3731 17.8016 16.5612 17.9897C16.7491 18.1776 17.0041 18.2833 17.2702 18.2833H22.283C22.6412 18.2833 22.9722 18.0921 23.1511 17.782C23.3303 17.4718 23.3303 17.0895 23.1511 16.7794C22.9721 16.4692 22.6412 16.2782 22.283 16.2782H18.2727V11.2653C18.2727 10.9992 18.167 10.7442 17.979 10.5563C17.7909 10.3682 17.536 10.2627 17.2701 10.2627L17.2702 10.2628Z" fill="#6A6A6A"/>
<path d="M17.2692 5.25C15.5616 5.24864 13.8733 5.61167 12.3173 6.31497C10.7612 7.0181 9.37305 8.04536 8.2459 9.32799V7.25516C8.2459 6.8968 8.05467 6.56587 7.74451 6.38686C7.43435 6.20768 7.05208 6.20768 6.74194 6.38686C6.43177 6.56585 6.24075 6.89681 6.24075 7.25516V12.2681C6.24075 12.5339 6.34628 12.7889 6.53439 12.977C6.72232 13.1649 6.97729 13.2707 7.24334 13.2707H12.2562C12.6144 13.2707 12.9454 13.0794 13.1243 12.7693C13.3035 12.4591 13.3035 12.0768 13.1243 11.7667C12.9453 11.4565 12.6144 11.2655 12.2562 11.2655H9.26087C10.6893 9.36079 12.7488 8.02682 15.0707 7.50174C17.3929 6.97682 19.826 7.29536 21.9343 8.4002C24.0431 9.50521 25.6899 11.3244 26.58 13.5325C27.4703 15.7406 27.5456 18.1932 26.7928 20.4519C26.0399 22.7103 24.5079 24.6272 22.4711 25.8598C20.4343 27.0923 18.0252 27.5595 15.6752 27.1782C13.3253 26.7967 11.1877 25.5916 9.64491 23.7784C8.10225 21.9652 7.25515 19.6623 7.25515 17.2814C7.25515 16.9231 7.06411 16.5921 6.75396 16.4131C6.4436 16.2339 6.06153 16.2339 5.75119 16.4131C5.44102 16.5921 5.25 16.9231 5.25 17.2814C5.25 19.6615 5.95586 21.988 7.27848 23.967C8.60095 25.9457 10.4808 27.4878 12.6799 28.3979C14.879 29.3082 17.2987 29.5456 19.633 29.0804C21.967 28.6152 24.1108 27.4682 25.7931 25.7842C27.4752 24.1004 28.62 21.9555 29.0829 19.6211C29.5456 17.2863 29.3056 14.8669 28.393 12.6689C27.4806 10.4707 25.9366 8.59238 23.9563 7.2719C21.9761 5.95136 19.649 5.24783 17.2688 5.25037L17.2692 5.25Z" fill="#6A6A6A"/>
</svg>
