<svg width="35" height="35" viewBox="0 0 35 35" fill="none" xmlns="http://www.w3.org/2000/svg">
<path d="M25.0384 12.7955V14.358H11.5795V12.7955H25.0384ZM25.0384 15.0611V16.6236H11.5795V15.0611H25.0384ZM18.4616 19.4077H14.9389V17.5469H18.4616C19.1719 17.5469 19.7377 17.419 20.1591 17.1634C20.5852 16.9029 20.8906 16.5573 21.0753 16.1264C21.2599 15.6908 21.3523 15.2079 21.3523 14.6776C21.3523 14.1378 21.2576 13.6548 21.0682 13.2287C20.8835 12.7978 20.5781 12.4569 20.152 12.206C19.7306 11.955 19.16 11.8295 18.4403 11.8295H15.5142V24.5H13.3267V9.95455H18.4403C19.5862 9.95455 20.5355 10.1629 21.2884 10.5795C22.0459 10.9962 22.6094 11.5597 22.9787 12.2699C23.3527 12.9801 23.5398 13.7803 23.5398 14.6705C23.5398 15.5559 23.3527 16.3561 22.9787 17.071C22.6046 17.786 22.0412 18.3542 21.2884 18.7756C20.5402 19.197 19.598 19.4077 18.4616 19.4077Z" fill="#6A6A6A"/>
</svg>
