<svg width="35" height="35" viewBox="0 0 35 35" fill="none" xmlns="http://www.w3.org/2000/svg">
<path d="M15.0276 8.55872V8.97989H12.9578C11.7043 8.97989 10.684 10.0326 10.684 11.3259V12.2884C10.5965 12.3184 10.5382 12.3485 10.4507 12.3786L7.56461 13.5817C7.41882 13.6419 7.33135 13.7321 7.27303 13.8825C7.24387 13.9126 5.61127 17.5821 10.6837 20.4997V26.9665C10.6837 28.2598 11.704 29.3125 12.9576 29.3125H25.2887C26.5422 29.3125 27.5625 28.2598 27.5625 26.9665V11.3262C27.5625 10.0328 26.5422 8.98011 25.2887 8.98011H23.2189V8.55871C23.2189 7.86702 22.6649 7.32554 22.0237 7.32554H20.7702C20.7993 7.20521 20.7993 7.11496 20.7993 6.99462C20.7993 6.03219 20.0415 5.25 19.1084 5.25C18.1756 5.25 17.4175 6.03196 17.4175 6.99462C17.4175 7.11496 17.4175 7.2052 17.4467 7.32554H16.1931C15.5519 7.29546 15.0273 7.86681 15.0273 8.55871L15.0276 8.55872ZM8.23507 14.6046L10.888 13.4917C11.0921 13.4015 11.3253 13.4015 11.5292 13.4917L14.2695 14.6046C14.4444 15.2662 14.7652 17.462 11.2378 19.4771C7.73959 17.4618 8.03093 15.2662 8.23501 14.6046H8.23507ZM25.2889 10.153C25.901 10.153 26.3967 10.6644 26.3967 11.2959V26.9362C26.3967 27.5677 25.901 28.0792 25.2889 28.0792L12.9578 28.0794C12.3457 28.0794 11.85 27.568 11.85 26.9364V20.4996C16.9517 17.5819 15.2899 13.9122 15.2608 13.8824C15.2024 13.762 15.0858 13.6417 14.94 13.5815L11.9375 12.3785C11.9083 12.3484 11.85 12.3484 11.8208 12.3484V11.3559C11.8208 10.7243 12.3165 10.2129 12.9286 10.2129H14.9984V10.5739C14.9984 11.2656 15.5524 11.8071 16.1936 11.8071H21.9949C22.6653 11.8071 23.1901 11.2355 23.1901 10.5739V10.2129H25.2892L25.2889 10.153ZM22.0531 8.55902V10.514C22.0531 10.544 22.024 10.544 22.024 10.544H16.2227C16.1935 10.544 16.1935 10.514 16.1935 10.514V8.55902C16.1935 8.52893 16.2227 8.52893 16.2227 8.52893H19.7209H19.75H22.0238C22.053 8.49885 22.053 8.52893 22.053 8.55902H22.0531ZM18.613 6.99493C18.613 6.69409 18.8463 6.45343 19.1379 6.45343C19.4294 6.45343 19.6627 6.69409 19.6627 6.99493C19.6627 7.11526 19.6335 7.23559 19.5461 7.32585H18.7297C18.6714 7.20551 18.613 7.11527 18.613 6.99493Z" fill="#6A6A6A"/>
<path d="M13.1621 15.0252C12.9288 14.7846 12.5789 14.7846 12.3459 15.0252L10.8008 16.6194L10.2177 16.0177C9.9844 15.7771 9.63452 15.7771 9.4015 16.0177C9.16825 16.2584 9.16825 16.6194 9.4015 16.8598L10.3926 17.8824C10.5093 18.0028 10.6551 18.0629 10.8008 18.0629C10.9466 18.0629 11.0924 18.0028 11.209 17.8824L13.1913 15.8372C13.3662 15.6569 13.3662 15.2659 13.1621 15.0252L13.1621 15.0252Z" fill="#6A6A6A"/>
<path d="M16.4269 12.98C16.1062 12.98 15.8438 13.2507 15.8438 13.5816C15.8438 13.9125 16.1062 14.1833 16.4269 14.1833H22.8693C23.19 14.1833 23.4525 13.9125 23.4525 13.5816C23.4525 13.2507 23.19 12.98 22.8693 12.98H16.4269Z" fill="#6A6A6A"/>
<path d="M15.8438 15.8077C15.8438 16.1386 16.1062 16.4094 16.4269 16.4094H24.3564C24.6771 16.4094 24.9395 16.1386 24.9395 15.8077C24.9395 15.4768 24.6771 15.2061 24.3564 15.2061H16.4269C16.1064 15.2061 15.8438 15.4768 15.8438 15.8077Z" fill="#6A6A6A"/>
<path d="M24.3853 17.4321H16.4269C16.1062 17.4321 15.8438 17.7029 15.8438 18.0338C15.8438 18.3647 16.1062 18.6355 16.4269 18.6355H24.3564C24.6771 18.6355 24.9395 18.3647 24.9395 18.0338C24.9395 17.7029 24.7063 17.4321 24.3858 17.4321H24.3853Z" fill="#6A6A6A"/>
<path d="M24.3853 19.6577H16.4269C16.1062 19.6577 15.8438 19.9285 15.8438 20.2594C15.8438 20.5903 16.1062 20.861 16.4269 20.861H24.3564C24.6771 20.861 24.9395 20.5903 24.9395 20.2594C24.9395 19.9282 24.7063 19.6577 24.3858 19.6577H24.3853Z" fill="#6A6A6A"/>
<path d="M24.3853 21.8535H16.4269C16.1062 21.8535 15.8438 22.1243 15.8438 22.4552C15.8438 22.7861 16.1062 23.0568 16.4269 23.0568H24.3564C24.6771 23.0568 24.9395 22.7861 24.9395 22.4552C24.9395 22.1243 24.7063 21.8535 24.3858 21.8535H24.3853Z" fill="#6A6A6A"/>
<path d="M24.3853 24.0791H16.4269C16.1062 24.0791 15.8438 24.3499 15.8438 24.6808C15.8438 25.0117 16.1062 25.2824 16.4269 25.2824H24.3564C24.6771 25.2824 24.9395 25.0117 24.9395 24.6808C24.9395 24.3499 24.7063 24.0791 24.3858 24.0791H24.3853Z" fill="#6A6A6A"/>
</svg>
