<svg width="35" height="35" viewBox="0 0 35 35" fill="none" xmlns="http://www.w3.org/2000/svg">
<path d="M20.678 24.6143H22.1999V20.1305H20.678V24.6143ZM28 7.74692L26.9232 6.65334L24.9444 8.66608L24.9442 4.2002H23.4194V8.675L21.4405 6.66226L20.3638 7.74686L24.1702 11.6334L28 7.74692ZM24.1703 13.9537H18.0908V9.14772C18.0908 8.94262 18.0102 8.746 17.8672 8.60117C17.7241 8.45658 17.5303 8.37568 17.3284 8.37637H10.4922C9.56726 8.38027 8.68118 8.75517 8.02708 9.41949C7.37297 10.0838 7.00381 10.9835 7 11.9231V27.2535C7.00384 28.1931 7.37297 29.0929 8.02708 29.7573C8.68118 30.4214 9.56726 30.7966 10.4922 30.8002H24.1698C25.0946 30.7965 25.9807 30.4214 26.6348 29.7573C27.2889 29.093 27.6581 28.1931 27.6619 27.2535V17.5004C27.6619 16.5597 27.2939 15.6575 26.6391 14.9925C25.9841 14.3272 25.0957 13.9537 24.1698 13.9537L24.1703 13.9537ZM10.4927 9.92204H16.5693V13.9537H10.4927C9.95432 13.9745 9.43083 13.772 9.04255 13.3925C8.65446 13.0132 8.43512 12.4896 8.43512 11.9423C8.43512 11.3951 8.65444 10.8715 9.04255 10.492C9.43087 10.1127 9.95434 9.91011 10.4927 9.93097V9.92204ZM26.1608 27.2535C26.1599 27.7863 25.9512 28.2971 25.5802 28.6738C25.2093 29.0506 24.7063 29.2625 24.1817 29.2635H10.4926C9.96526 29.2665 9.45827 29.0563 9.08368 28.6794C8.70913 28.3022 8.49768 27.7893 8.49635 27.2535V14.8634C9.08253 15.2754 9.77955 15.4943 10.4926 15.49H24.1702C24.6948 15.4909 25.1975 15.7028 25.5684 16.0796C25.9394 16.4563 26.1483 16.9671 26.149 17.4999L26.1608 27.2535Z" fill="#6A6A6A"/>
</svg>
