<svg width="35" height="35" viewBox="0 0 35 35" fill="none" xmlns="http://www.w3.org/2000/svg">
<mask id="mask0_2030_11625" style="mask-type:luminance" maskUnits="userSpaceOnUse" x="0" y="0" width="35" height="35">
<path d="M0.279297 0.279785H34.7194V34.7199H0.279297V0.279785Z" fill="white"/>
</mask>
<g mask="url(#mask0_2030_11625)">
<path d="M13.9455 6.125H8.96893C8.21488 6.12571 7.49203 6.42557 6.95897 6.95881C6.42573 7.49187 6.1259 8.21468 6.12518 8.96879V13.9454C6.12589 14.6995 6.42574 15.4224 6.95897 15.9554C7.49203 16.4887 8.21484 16.7885 8.96893 16.7892H13.9455C14.6996 16.7885 15.4224 16.4887 15.9555 15.9554C16.4887 15.4224 16.7885 14.6995 16.7893 13.9454V8.96879C16.7885 8.21473 16.4887 7.49187 15.9555 6.95881C15.4224 6.42556 14.6996 6.12572 13.9455 6.125ZM15.3674 13.9451C15.3668 14.3221 15.2169 14.6835 14.9504 14.95C14.6838 15.2165 14.3224 15.3665 13.9455 15.367H8.96891C8.59197 15.3665 8.23053 15.2165 7.96402 14.95C7.69752 14.6835 7.54757 14.3221 7.54704 13.9451V8.96847C7.54757 8.59152 7.6975 8.23008 7.96402 7.96357C8.23055 7.69706 8.59195 7.54711 8.96891 7.54658H13.9455C14.3224 7.54711 14.6839 7.69704 14.9504 7.96357C15.2169 8.2301 15.3668 8.59151 15.3674 8.96847V13.9451ZM26.0312 6.125H21.0547C20.3008 6.12571 19.5778 6.42557 19.0447 6.95881C18.5115 7.49187 18.2116 8.21468 18.2109 8.96879V13.9454C18.2116 14.6995 18.5115 15.4224 19.0447 15.9554C19.5778 16.4887 20.3008 16.7885 21.0547 16.7892H26.0312C26.7853 16.7885 27.5081 16.4887 28.0414 15.9554C28.5744 15.4224 28.8743 14.6995 28.875 13.9454V8.96879C28.8743 8.21473 28.5744 7.49187 28.0414 6.95881C27.5081 6.42556 26.7853 6.12572 26.0312 6.125ZM27.4531 13.9451C27.4527 14.3221 27.3026 14.6835 27.0361 14.95C26.7696 15.2165 26.4082 15.3665 26.0312 15.367H21.0547C20.6777 15.3665 20.3163 15.2165 20.0498 14.95C19.7833 14.6835 19.6333 14.3221 19.6328 13.9451V8.96847C19.6333 8.59152 19.7832 8.23008 20.0498 7.96357C20.3163 7.69706 20.6777 7.54711 21.0547 7.54658H26.0312C26.4082 7.54711 26.7696 7.69704 27.0361 7.96357C27.3026 8.2301 27.4527 8.59151 27.4531 8.96847V13.9451ZM13.9453 18.2108H8.96875C8.2147 18.2115 7.49185 18.5113 6.95879 19.0446C6.42555 19.5777 6.12572 20.3006 6.125 21.0546V26.0312C6.12571 26.7853 6.42556 27.5081 6.95879 28.0414C7.49185 28.5744 8.21465 28.8743 8.96875 28.875H13.9453C14.6994 28.8743 15.4222 28.5744 15.9553 28.0414C16.4885 27.5081 16.7883 26.7853 16.7891 26.0312V21.0546C16.7884 20.3007 16.4885 19.5777 15.9553 19.0446C15.4222 18.5113 14.6994 18.2115 13.9453 18.2108ZM15.3672 26.0309C15.3666 26.4078 15.2167 26.7693 14.9502 27.0358C14.6837 27.3023 14.3223 27.4524 13.9453 27.4528H8.96873C8.59179 27.4524 8.23035 27.3023 7.96384 27.0358C7.69732 26.7693 7.54739 26.4079 7.54686 26.0309V21.0543C7.54739 20.6773 7.69732 20.3159 7.96384 20.0493C8.23037 19.7828 8.59177 19.6329 8.96873 19.6324H13.9453C14.3222 19.6329 14.6837 19.7828 14.9502 20.0493C15.2167 20.3159 15.3666 20.6773 15.3672 21.0543V26.0309ZM26.0311 18.2108H21.0545C20.3006 18.2115 19.5776 18.5113 19.0445 19.0446C18.5113 19.5777 18.2115 20.3006 18.2107 21.0546V26.0312C18.2115 26.7853 18.5113 27.5081 19.0445 28.0414C19.5776 28.5744 20.3006 28.8743 21.0545 28.875H26.0311C26.7851 28.8743 27.508 28.5744 28.0412 28.0414C28.5743 27.5081 28.8741 26.7853 28.8748 26.0312V21.0546C28.8741 20.3007 28.5743 19.5777 28.0412 19.0446C27.508 18.5113 26.7852 18.2115 26.0311 18.2108ZM27.4529 26.0309C27.4526 26.4078 27.3025 26.7693 27.0359 27.0358C26.7694 27.3023 26.408 27.4524 26.031 27.4528H21.0545C20.6775 27.4524 20.3161 27.3023 20.0496 27.0358C19.7831 26.7693 19.6331 26.4079 19.6326 26.0309V21.0543C19.6331 20.6773 19.7831 20.3159 20.0496 20.0493C20.3161 19.7828 20.6775 19.6329 21.0545 19.6324H26.031C26.408 19.6329 26.7694 19.7828 27.0359 20.0493C27.3025 20.3159 27.4526 20.6773 27.4529 21.0543V26.0309Z" fill="#6A6A6A"/>
</g>
</svg>
