<svg width="35" height="35" viewBox="0 0 35 35" fill="none" xmlns="http://www.w3.org/2000/svg">
<path d="M22.6965 11.0784C22.133 10.8499 21.9013 10.6995 21.9013 10.4639C21.9013 10.2637 22.0399 10.0635 22.4711 10.0635C22.9484 10.0635 23.2528 10.2277 23.4258 10.3068L23.6178 9.49887C23.3995 9.38458 23.1006 9.28394 22.6568 9.26347L22.6566 8.63428H22.0071V9.3132C21.2978 9.46352 20.8874 9.95692 20.8874 10.5851C20.8874 11.2787 21.371 11.6352 22.0804 11.8921C22.5705 12.0708 22.7825 12.2426 22.7825 12.5143C22.7825 12.8004 22.5243 12.9578 22.1467 12.9578C21.7156 12.9578 21.3252 12.8074 21.047 12.6433L20.8477 13.4795C21.0995 13.6369 21.5298 13.7656 21.9744 13.7872V14.4661H22.6239V13.7373C23.3865 13.5938 23.8033 13.0516 23.8033 12.4147C23.8041 11.771 23.4854 11.3782 22.6965 11.0784Z" fill="#6A6A6A"/>
<path d="M28.2554 13.3182C28.5016 12.9805 28.4929 12.4967 28.2044 12.1865L22.0061 5.50203C21.6945 5.16599 21.191 5.16599 20.8793 5.50203L13.941 12.9845H6.92179C6.88284 12.9845 6.84765 13.0018 6.81028 13.0069C6.76876 13.0128 6.72902 13.018 6.68908 13.0318C6.61336 13.0568 6.54574 13.0962 6.48188 13.1435C6.46191 13.1583 6.43719 13.1617 6.419 13.1779C6.41426 13.1821 6.41268 13.189 6.40793 13.1943C6.32588 13.2691 6.25807 13.3602 6.20943 13.4659C6.19835 13.49 6.19756 13.5175 6.18867 13.5425C6.16395 13.612 6.13766 13.68 6.12975 13.7574C6.12816 13.7747 6.1337 13.7892 6.1337 13.8065C6.13212 13.819 6.125 13.8301 6.125 13.844V25.7969C6.125 26.205 6.39033 26.5566 6.76082 26.6383L18.714 29.2946C18.7674 29.3065 18.8218 29.3125 18.8751 29.3125C19.0568 29.3125 19.2354 29.2455 19.3787 29.1191C19.5644 28.956 19.6719 28.7119 19.6719 28.4532V26.6562H27.6407C28.0806 26.6562 28.4375 26.2711 28.4375 25.7969V13.844C28.4375 13.6421 28.3634 13.4649 28.255 13.318L28.2554 13.3182ZM18.0783 25.7973V27.3993L7.71896 25.0969V14.8983L17.8399 17.1472L18.0781 17.2007L18.0783 25.7973ZM18.0822 15.447L14.6246 14.6788L21.4435 7.32515L26.5151 12.7945L24.0551 15.4475L18.0822 15.447ZM26.8442 24.9382H19.6721V23.2976H25.2503C25.6902 23.2976 26.0471 22.9126 26.0471 22.4384C26.0471 21.964 25.69 21.5791 25.2503 21.5791H19.6721V20.7198H25.2503C25.6902 20.7198 26.0471 20.3348 26.0471 19.8606C26.0471 19.3861 25.69 19.0013 25.2503 19.0013H19.6721V17.3608H26.8442V24.9382ZM26.8442 15.6413H26.2067L26.8442 14.9014V15.6413Z" fill="#6A6A6A"/>
</svg>
