<svg width="35" height="35" viewBox="0 0 35 35" fill="none" xmlns="http://www.w3.org/2000/svg">
<path d="M16 5.6875C13.1625 5.6875 10.8438 8.00618 10.8438 10.8437C10.8438 13.6812 13.1625 15.9998 16 15.9998C18.8376 15.9998 21.1563 13.6812 21.1563 10.8437C21.1563 8.00618 18.8376 5.6875 16 5.6875ZM16 7.4062C17.9088 7.4062 19.4376 8.93496 19.4376 10.8437C19.4376 12.7524 17.9088 14.2811 16 14.2811C14.0913 14.2811 12.5625 12.7524 12.5625 10.8437C12.5625 8.93496 14.0913 7.4062 16 7.4062Z" fill="#6A6A6A"/>
<path d="M13.4221 17.7188C9.15212 17.7188 5.6875 21.1831 5.6875 25.4531V27.1718C5.6875 27.3998 5.77812 27.6183 5.93931 27.7795C6.10029 27.9407 6.31906 28.0311 6.54678 28.0311H15.8692C16.0993 28.0345 16.321 27.9454 16.4848 27.7838C16.6485 27.6224 16.7408 27.4019 16.7408 27.1719C16.7408 26.9418 16.6485 26.7213 16.4848 26.5599C16.321 26.3983 16.0993 26.3092 15.8692 26.3126H7.40648V25.4534C7.40648 22.1059 10.0745 19.4378 13.4222 19.4378H16.8732V19.4376C17.1032 19.4408 17.325 19.3516 17.4887 19.1902C17.6525 19.0286 17.7448 18.8082 17.7448 18.5781C17.7448 18.348 17.6525 18.1276 17.4887 17.9662C17.325 17.8046 17.1032 17.7156 16.8732 17.7188L13.4221 17.7188Z" fill="#6A6A6A"/>
<path d="M23.7229 17.7188C23.2436 17.7264 22.8653 18.116 22.8719 18.5897V19.5247C22.325 19.6375 21.8154 19.8573 21.3647 20.1575L20.705 19.498C20.5024 19.2897 20.2726 19.2113 20.0555 19.2228C19.4046 19.2575 18.8647 20.1057 19.4899 20.7132L20.153 21.3761C19.8543 21.8272 19.6346 22.3362 19.5236 22.8833H18.5903C17.4282 22.8669 17.4282 24.6184 18.5903 24.602H19.5267C19.6391 25.144 19.8579 25.6482 20.1544 26.0957L19.4864 26.7637C18.6532 27.5737 19.8916 28.8121 20.7016 27.9789L21.3679 27.3126C21.8178 27.6117 22.3261 27.8311 22.8718 27.9436V28.8786C22.8553 30.0406 24.6069 30.0406 24.5905 28.8786V27.9453C25.1357 27.8338 25.6429 27.6138 26.0927 27.3159L26.7641 27.9874C27.1018 28.3347 27.6609 28.3347 27.9944 27.9908C28.3276 27.6464 28.3193 27.1027 27.9788 26.7723L27.3108 26.1043C27.61 25.655 27.8289 25.1472 27.9419 24.6022H28.8784C29.3628 24.609 29.7571 24.2137 29.7496 23.7344C29.741 23.2553 29.3523 22.8771 28.8784 22.8835H27.9451C27.8334 22.3334 27.6135 21.821 27.3124 21.3679L27.9754 20.705C28.3229 20.3673 28.3229 19.8082 27.9754 19.4748C27.8042 19.3089 27.5837 19.2276 27.3645 19.2298C27.1453 19.234 26.9281 19.3208 26.7634 19.4899L26.0986 20.1545C25.6485 19.8554 25.14 19.6349 24.5935 19.5232V18.5899C24.602 18.1055 24.2048 17.7113 23.7257 17.719L23.7229 17.7188ZM23.7348 21.156C25.1689 21.156 26.3128 22.3001 26.3128 23.7339C26.3128 25.1678 25.1689 26.3119 23.7348 26.3119C22.3007 26.3119 21.1568 25.1678 21.1568 23.7339C21.1568 22.3001 22.3007 21.156 23.7348 21.156Z" fill="#6A6A6A"/>
</svg>
