<svg width="17" height="17" viewBox="0 0 17 17" fill="none" xmlns="http://www.w3.org/2000/svg">
<path d="M14.3735 13.6655L11.3782 10.6702C12.0867 9.80463 12.5132 8.69956 12.5132 7.49635C12.5132 4.7292 10.262 2.47803 7.49488 2.47803C4.72774 2.47816 2.47656 4.72937 2.47656 7.49635C2.47656 10.2635 4.72777 12.5147 7.49488 12.5147C8.6981 12.5147 9.80316 12.0882 10.6686 11.3797L13.6639 14.3749C13.86 14.571 14.1775 14.571 14.3735 14.3749C14.5696 14.1788 14.5696 13.8613 14.3735 13.6654L14.3735 13.6655ZM3.47986 7.49638C3.47986 5.28279 5.281 3.48179 7.49445 3.48179C9.7079 3.48179 11.509 5.28293 11.509 7.49638C11.509 9.70983 9.7079 11.511 7.49445 11.511C5.281 11.511 3.47986 9.70983 3.47986 7.49638Z" fill="#868686"/>
</svg>
