<svg width="25" height="25" viewBox="0 0 25 25" fill="none" xmlns="http://www.w3.org/2000/svg">
<g clip-path="url(#clip0_2008_12964)">
<path d="M24.0543 0.572754H0.944961C0.73916 0.572754 0.572266 0.739648 0.572266 0.945449C0.572266 1.15145 0.73916 1.31833 0.944961 1.31833H2.06322V6.5366C2.06379 7.26233 2.3293 7.96311 2.80956 8.50725C3.28983 9.05124 3.95224 9.40159 4.67226 9.49221V22.564C4.67226 23.0584 4.86852 23.5324 5.21815 23.8818C5.56758 24.2314 6.04174 24.4277 6.53593 24.4277H18.4632C18.9576 24.4277 19.4315 24.2314 19.7809 23.8818C20.1306 23.5323 20.3268 23.0584 20.3268 22.564V9.49221C21.0471 9.40161 21.7093 9.05123 22.1895 8.50725C22.67 7.96306 22.9353 7.26233 22.9359 6.5366V1.31833H24.0541C24.2599 1.31833 24.4268 1.15144 24.4268 0.945449C24.4268 0.739648 24.2599 0.572754 24.0541 0.572754H24.0543ZM19.5816 22.564C19.5816 22.8606 19.4637 23.1449 19.2541 23.3547C19.0443 23.5644 18.7599 23.6822 18.4633 23.6822H6.53607C6.23948 23.6822 5.95512 23.5644 5.7453 23.3547C5.53568 23.1449 5.41781 22.8605 5.41781 22.564V4.30029H19.5814L19.5816 22.564ZM22.1907 6.53662C22.1901 7.06475 22.0028 7.57554 21.6616 7.97876C21.3205 8.38197 20.8477 8.65147 20.327 8.7394V3.92754C20.327 3.82855 20.2877 3.73375 20.2179 3.66395C20.1479 3.59395 20.0531 3.55484 19.9543 3.55484H5.04512C4.83932 3.55484 4.67242 3.72155 4.67242 3.92754V8.7394C4.15172 8.65147 3.67887 8.38197 3.33785 7.97876C2.99682 7.57555 2.80934 7.06475 2.80875 6.53662V1.31836H22.1906L22.1907 6.53662Z" fill="black"/>
<path d="M17.7173 6.16357C17.5115 6.16357 17.3446 6.33047 17.3446 6.53627V17.7404C16.5889 17.8252 15.8844 18.1644 15.3467 18.702C14.809 19.2397 14.4699 19.9441 14.3852 20.6998H10.6132C10.5283 19.9441 10.1892 19.2397 9.65154 18.702C9.11385 18.1643 8.40931 17.8252 7.65359 17.7404V6.53627C7.65359 6.33047 7.4867 6.16357 7.2809 6.16357C7.0751 6.16357 6.9082 6.33047 6.9082 6.53627V18.091C6.9082 18.1898 6.94749 18.2847 7.0173 18.3545C7.0873 18.4244 7.1821 18.4637 7.2809 18.4637C7.97289 18.4637 8.63666 18.7387 9.12587 19.2279C9.61513 19.7172 9.88993 20.3809 9.88993 21.0729C9.88993 21.1717 9.92922 21.2665 9.99922 21.3363C10.069 21.4063 10.1638 21.4456 10.2628 21.4456H14.7356C14.8344 21.4456 14.9292 21.4063 14.999 21.3363C15.069 21.2665 15.1083 21.1717 15.1083 21.0729C15.1083 20.3809 15.3831 19.7171 15.8723 19.2279C16.3617 18.7387 17.0253 18.4637 17.7173 18.4637C17.8161 18.4637 17.9109 18.4244 17.9809 18.3545C18.0507 18.2847 18.09 18.1898 18.09 18.091V6.53627C18.09 6.43747 18.0507 6.34267 17.9809 6.27267C17.9109 6.20286 17.8161 6.16357 17.7173 6.16357Z" fill="black"/>
<path d="M12.4996 14.7362C13.2903 14.7362 14.0487 14.4221 14.608 13.8628C15.1672 13.3036 15.4813 12.5453 15.4813 11.7542C15.4813 10.9635 15.1672 10.2051 14.608 9.64585C14.0487 9.08662 13.2904 8.77246 12.4996 8.77246C11.7086 8.77246 10.9502 9.0866 10.391 9.64585C9.83169 10.2051 9.51758 10.9634 9.51758 11.7542C9.51758 12.5452 9.83172 13.3036 10.391 13.8628C10.9502 14.4221 11.7085 14.7362 12.4996 14.7362ZM12.4996 9.51778C13.0926 9.51778 13.6615 9.75353 14.0808 10.1728C14.5002 10.5922 14.7359 11.1611 14.7359 11.7542C14.7359 12.3473 14.5002 12.9161 14.0808 13.3356C13.6615 13.755 13.0926 13.9905 12.4996 13.9905C11.9064 13.9905 11.3376 13.755 10.9182 13.3356C10.4987 12.9161 10.2632 12.3474 10.2632 11.7542C10.2632 11.1611 10.4987 10.5922 10.9182 10.1728C11.3376 9.75353 11.9063 9.51778 12.4996 9.51778Z" fill="black"/>
<path d="M12.127 16.9725V17.7179C12.127 17.9237 12.2938 18.0906 12.4998 18.0906C12.7056 18.0906 12.8725 17.9237 12.8725 17.7179V16.9725C12.8725 16.7665 12.7056 16.5996 12.4998 16.5996C12.2938 16.5996 12.127 16.7665 12.127 16.9725Z" fill="black"/>
</g>
<defs>
<clipPath id="clip0_2008_12964">
<rect width="25" height="25" fill="white"/>
</clipPath>
</defs>
</svg>
