<svg width="25" height="29" viewBox="0 0 25 29" fill="none" xmlns="http://www.w3.org/2000/svg">
<path d="M18.0795 10.8381V12.2443H6.39489V10.8381H18.0795ZM18.0795 12.9347V14.3409H6.39489V12.9347H18.0795ZM12.4034 16.7699H9.28409V15.3636H12.4034C13.1023 15.3636 13.6563 15.2422 14.0653 14.9993C14.4787 14.7521 14.7727 14.4176 14.9474 13.9957C15.1264 13.5696 15.2159 13.0881 15.2159 12.5511C15.2159 12.0142 15.1264 11.5412 14.9474 11.1321C14.7685 10.7187 14.4723 10.397 14.0589 10.1669C13.6456 9.93253 13.0852 9.81534 12.3778 9.81534H9.59091V21.5H8.00568V8.40909H12.3778C13.4006 8.40909 14.2358 8.59233 14.8835 8.95881C15.5313 9.32102 16.0085 9.81534 16.3153 10.4418C16.6222 11.0639 16.7756 11.767 16.7756 12.5511C16.7756 13.3352 16.6222 14.0469 16.3153 14.6861C16.0085 15.321 15.5334 15.8281 14.8899 16.2074C14.2464 16.5824 13.4176 16.7699 12.4034 16.7699Z" fill="black"/>
</svg>
