<svg width="25" height="25" viewBox="0 0 25 25" fill="none" xmlns="http://www.w3.org/2000/svg">
<path d="M21.1489 20.1119C21.1349 20.0203 20.8002 17.8546 20.4578 16.4841C19.7214 13.5386 17.9129 12.6353 16.164 11.7621C16.1606 11.7606 16.1575 11.759 16.1545 11.7571C17.1684 10.7905 17.8037 9.4313 17.8037 7.92334C17.8037 4.99936 15.4249 2.62012 12.5005 2.62012C9.57613 2.62012 7.19728 4.99897 7.19728 7.92334C7.19728 9.4313 7.83263 10.7905 8.84655 11.7571C8.84311 11.759 8.84006 11.7606 8.83701 11.7621C7.08818 12.6355 5.27964 13.5386 4.54316 16.4845C4.2006 17.8544 3.86587 20.0203 3.85215 20.1123C3.82792 20.2695 3.90326 20.4251 4.04116 20.5044C4.17525 20.5809 7.38091 22.3801 12.5006 22.3801C17.6204 22.3801 20.8258 20.5809 20.9601 20.5044C21.098 20.4249 21.1734 20.2693 21.1491 20.1119L21.1489 20.1119ZM7.96624 7.92342C7.96624 5.42307 10.0004 3.38889 12.5008 3.38889C15.0011 3.38889 17.0353 5.42307 17.0353 7.92342C17.0351 10.4238 15.0011 12.4579 12.5008 12.4579C10.0002 12.4579 7.96624 10.4238 7.96624 7.92342ZM12.5008 21.6109C8.35647 21.6109 5.46804 20.3551 4.65506 19.9561C4.75729 19.3234 5.02527 17.7264 5.2885 16.6705C5.93929 14.0679 7.44134 13.3179 9.18025 12.4497C9.28515 12.3971 9.39159 12.3433 9.49744 12.2899C10.3523 12.8795 11.3859 13.227 12.5006 13.227C13.6152 13.227 14.6488 12.8798 15.5037 12.2899C15.6094 12.3433 15.7158 12.3971 15.8209 12.4497C17.5598 13.3183 19.0619 14.0683 19.7126 16.6705C19.9762 17.7264 20.2438 19.323 20.3461 19.9561C19.533 20.3555 16.6449 21.6109 12.5004 21.6109H12.5008Z" fill="black"/>
</svg>
