<svg width="22" height="22" viewBox="0 0 22 22" fill="none" xmlns="http://www.w3.org/2000/svg">
<g clip-path="url(#clip0_2008_12955)">
<path d="M10.9968 0.834961C5.36836 0.834961 0.822266 5.38105 0.822266 11.0095C0.822266 16.638 5.36836 21.1841 10.9968 21.1841C16.6253 21.1841 21.1714 16.638 21.1714 11.0095C21.1716 5.38105 16.6253 0.834961 10.9968 0.834961ZM10.9968 19.8852C6.10441 19.8852 2.12121 15.902 2.12121 11.0095C2.12121 6.11711 6.10437 2.13391 10.9968 2.13391C15.8893 2.13391 19.8725 6.11707 19.8725 11.0095C19.8723 15.902 15.8891 19.8852 10.9968 19.8852Z" fill="black"/>
<path d="M11.854 5.41759H10.1319C9.97499 5.41654 9.82475 5.48164 9.718 5.59703C9.61083 5.71388 9.55798 5.87079 9.57275 6.02874L10.0703 11.428C10.0915 11.6565 10.1987 11.8683 10.3701 12.0204C10.5414 12.1723 10.7641 12.2532 10.9929 12.2466C11.2254 12.2564 11.4528 12.1775 11.6293 12.0254C11.8057 11.8735 11.9181 11.6598 11.9433 11.428L12.4131 6.05116C12.4277 5.893 12.3748 5.73609 12.2677 5.61946C12.1651 5.49572 12.0142 5.42228 11.854 5.41748L11.854 5.41759Z" fill="black"/>
<path d="M10.8637 16.6083H11.104C11.5035 16.6083 11.8727 16.3945 12.0725 16.0477C12.2722 15.7007 12.2722 15.2732 12.0725 14.9264C11.8727 14.5794 11.5035 14.3657 11.104 14.3657H10.8468C10.4473 14.3657 10.0781 14.5794 9.87834 14.9264C9.67857 15.2732 9.67857 15.7007 9.87834 16.0477C10.0781 16.3945 10.4473 16.6083 10.8468 16.6083H10.8637Z" fill="black"/>
</g>
<defs>
<clipPath id="clip0_2008_12955">
<rect width="22" height="22" fill="white"/>
</clipPath>
</defs>
</svg>
