<svg width="22" height="22" viewBox="0 0 22 22" fill="none" xmlns="http://www.w3.org/2000/svg">
<g clip-path="url(#clip0_2008_12957)">
<mask id="mask0_2008_12957" style="mask-type:luminance" maskUnits="userSpaceOnUse" x="0" y="0" width="22" height="22">
<path d="M21.8242 0.214844H0.176132V21.8238H21.8242V0.214844Z" fill="white"/>
</mask>
<g mask="url(#mask0_2008_12957)">
<path d="M3.1392 21.8236H3.24294C4.10485 21.7922 4.91756 21.4151 5.49794 20.7772L13.7063 11.5768C15.1432 12.148 16.7468 12.1328 18.1724 11.5343C19.5983 10.9358 20.7322 9.80181 21.3308 8.37594C21.9294 6.95023 21.9446 5.34664 21.3733 3.90977C21.2969 3.71255 21.1282 3.56568 20.9223 3.51751C20.7111 3.47521 20.4929 3.54117 20.3405 3.69324L17.4045 6.62921L15.8801 6.09245L15.339 4.56353L18.302 1.64587C18.4497 1.49631 18.5153 1.28432 18.4779 1.07752C18.4296 0.87157 18.2827 0.702884 18.0855 0.626519C16.6499 0.0622109 15.0503 0.0821916 13.6292 0.682246C12.208 1.2823 11.0783 2.41475 10.4815 3.83727C9.88484 5.25975 9.86856 6.85918 10.4364 8.29356L1.16804 16.5964C0.548515 17.1526 0.187148 17.9407 0.170004 18.7732C0.152883 19.6057 0.481526 20.408 1.07789 20.9891C1.62759 21.5289 2.36863 21.8288 3.13889 21.8235L3.1392 21.8236ZM13.5531 10.1701C13.3722 10.1701 13.2001 10.2473 13.0795 10.3819L4.54673 19.9115C4.19963 20.295 3.71069 20.5199 3.19373 20.5339C2.74123 20.5609 2.29809 20.3972 1.97149 20.0829C1.62472 19.749 1.43218 19.2859 1.43992 18.8045C1.44747 18.3232 1.65476 17.8666 2.01209 17.5438L11.6319 8.93419C11.7362 8.84053 11.8067 8.71514 11.8327 8.57751C11.8587 8.43988 11.8389 8.29738 11.7763 8.17199C11.2665 7.15385 11.1501 5.98342 11.4493 4.88471C11.7484 3.786 12.4423 2.83613 13.398 2.21696C14.3536 1.59778 15.504 1.3529 16.6291 1.52877L14.1845 3.96424C14.1001 4.04967 14.0414 4.15709 14.015 4.27425C13.9887 4.39157 13.9959 4.51376 14.0358 4.62723L14.8071 6.81915V6.81898C14.8698 7.00109 15.0129 7.1441 15.1948 7.20687L17.3912 7.98267C17.5028 8.0243 17.6242 8.03336 17.7409 8.00852C17.8575 7.98385 17.9646 7.92628 18.0497 7.84286L20.4715 5.38491C20.6453 6.50747 20.4 7.6547 19.7825 8.60826C19.1649 9.56165 18.2182 10.2546 17.1227 10.5551C16.0272 10.8556 14.8594 10.7426 13.8418 10.2377C13.7522 10.1931 13.6533 10.1699 13.5533 10.1701L13.5531 10.1701Z" fill="black"/>
</g>
</g>
<defs>
<clipPath id="clip0_2008_12957">
<rect width="22" height="22" fill="white"/>
</clipPath>
</defs>
</svg>
