<svg width="0" height="0" class="hidden">
  <symbol fill="none" xmlns="http://www.w3.org/2000/svg" viewBox="0 0 25 25" id="balance">
    <g clip-path="url(#clip0_2008_12964)">
      <path d="M24.0543 0.572754H0.944961C0.73916 0.572754 0.572266 0.739648 0.572266 0.945449C0.572266 1.15145 0.73916 1.31833 0.944961 1.31833H2.06322V6.5366C2.06379 7.26233 2.3293 7.96311 2.80956 8.50725C3.28983 9.05124 3.95224 9.40159 4.67226 9.49221V22.564C4.67226 23.0584 4.86852 23.5324 5.21815 23.8818C5.56758 24.2314 6.04174 24.4277 6.53593 24.4277H18.4632C18.9576 24.4277 19.4315 24.2314 19.7809 23.8818C20.1306 23.5323 20.3268 23.0584 20.3268 22.564V9.49221C21.0471 9.40161 21.7093 9.05123 22.1895 8.50725C22.67 7.96306 22.9353 7.26233 22.9359 6.5366V1.31833H24.0541C24.2599 1.31833 24.4268 1.15144 24.4268 0.945449C24.4268 0.739648 24.2599 0.572754 24.0541 0.572754H24.0543ZM19.5816 22.564C19.5816 22.8606 19.4637 23.1449 19.2541 23.3547C19.0443 23.5644 18.7599 23.6822 18.4633 23.6822H6.53607C6.23948 23.6822 5.95512 23.5644 5.7453 23.3547C5.53568 23.1449 5.41781 22.8605 5.41781 22.564V4.30029H19.5814L19.5816 22.564ZM22.1907 6.53662C22.1901 7.06475 22.0028 7.57554 21.6616 7.97876C21.3205 8.38197 20.8477 8.65147 20.327 8.7394V3.92754C20.327 3.82855 20.2877 3.73375 20.2179 3.66395C20.1479 3.59395 20.0531 3.55484 19.9543 3.55484H5.04512C4.83932 3.55484 4.67242 3.72155 4.67242 3.92754V8.7394C4.15172 8.65147 3.67887 8.38197 3.33785 7.97876C2.99682 7.57555 2.80934 7.06475 2.80875 6.53662V1.31836H22.1906L22.1907 6.53662Z" fill="currentColor"></path>
      <path d="M17.7173 6.16357C17.5115 6.16357 17.3446 6.33047 17.3446 6.53627V17.7404C16.5889 17.8252 15.8844 18.1644 15.3467 18.702C14.809 19.2397 14.4699 19.9441 14.3852 20.6998H10.6132C10.5283 19.9441 10.1892 19.2397 9.65154 18.702C9.11385 18.1643 8.40931 17.8252 7.65359 17.7404V6.53627C7.65359 6.33047 7.4867 6.16357 7.2809 6.16357C7.0751 6.16357 6.9082 6.33047 6.9082 6.53627V18.091C6.9082 18.1898 6.94749 18.2847 7.0173 18.3545C7.0873 18.4244 7.1821 18.4637 7.2809 18.4637C7.97289 18.4637 8.63666 18.7387 9.12587 19.2279C9.61513 19.7172 9.88993 20.3809 9.88993 21.0729C9.88993 21.1717 9.92922 21.2665 9.99922 21.3363C10.069 21.4063 10.1638 21.4456 10.2628 21.4456H14.7356C14.8344 21.4456 14.9292 21.4063 14.999 21.3363C15.069 21.2665 15.1083 21.1717 15.1083 21.0729C15.1083 20.3809 15.3831 19.7171 15.8723 19.2279C16.3617 18.7387 17.0253 18.4637 17.7173 18.4637C17.8161 18.4637 17.9109 18.4244 17.9809 18.3545C18.0507 18.2847 18.09 18.1898 18.09 18.091V6.53627C18.09 6.43747 18.0507 6.34267 17.9809 6.27267C17.9109 6.20286 17.8161 6.16357 17.7173 6.16357Z" fill="currentColor"></path>
      <path d="M12.4996 14.7362C13.2903 14.7362 14.0487 14.4221 14.608 13.8628C15.1672 13.3036 15.4813 12.5453 15.4813 11.7542C15.4813 10.9635 15.1672 10.2051 14.608 9.64585C14.0487 9.08662 13.2904 8.77246 12.4996 8.77246C11.7086 8.77246 10.9502 9.0866 10.391 9.64585C9.83169 10.2051 9.51758 10.9634 9.51758 11.7542C9.51758 12.5452 9.83172 13.3036 10.391 13.8628C10.9502 14.4221 11.7085 14.7362 12.4996 14.7362ZM12.4996 9.51778C13.0926 9.51778 13.6615 9.75353 14.0808 10.1728C14.5002 10.5922 14.7359 11.1611 14.7359 11.7542C14.7359 12.3473 14.5002 12.9161 14.0808 13.3356C13.6615 13.755 13.0926 13.9905 12.4996 13.9905C11.9064 13.9905 11.3376 13.755 10.9182 13.3356C10.4987 12.9161 10.2632 12.3474 10.2632 11.7542C10.2632 11.1611 10.4987 10.5922 10.9182 10.1728C11.3376 9.75353 11.9063 9.51778 12.4996 9.51778Z" fill="currentColor"></path>
      <path d="M12.127 16.9725V17.7179C12.127 17.9237 12.2938 18.0906 12.4998 18.0906C12.7056 18.0906 12.8725 17.9237 12.8725 17.7179V16.9725C12.8725 16.7665 12.7056 16.5996 12.4998 16.5996C12.2938 16.5996 12.127 16.7665 12.127 16.9725Z" fill="currentColor"></path>
    </g>
    <defs>
      <clipPath id="clip0_2008_12964">
        <rect width="25" height="25" fill="white"></rect>
      </clipPath>
    </defs>
  </symbol>
  <symbol fill="none" xmlns="http://www.w3.org/2000/svg" viewBox="0 0 22 22" id="check">
    <g clip-path="url(#clip0_2008_12958)">
      <path d="M10.9968 0.834961C5.36836 0.834961 0.822266 5.38105 0.822266 11.0095C0.822266 16.638 5.36836 21.1841 10.9968 21.1841C16.6253 21.1841 21.1714 16.638 21.1714 11.0095C21.1716 5.38105 16.6253 0.834961 10.9968 0.834961ZM10.9968 19.8852C6.10441 19.8852 2.12121 15.902 2.12121 11.0095C2.12121 6.11711 6.10437 2.13391 10.9968 2.13391C15.8893 2.13391 19.8725 6.11707 19.8725 11.0095C19.8723 15.902 15.8891 19.8852 10.9968 19.8852Z" fill="currentColor"></path>
      <path d="M15.0891 7.37275L10.2182 12.871L7.46885 10.663C7.10076 10.3599 6.55963 10.4248 6.25648 10.7929C5.95335 11.161 6.01831 11.7021 6.38639 12.0053L9.78514 14.7113C9.9367 14.8412 10.1316 14.9062 10.3263 14.9062C10.5645 14.9062 10.8025 14.7979 10.9757 14.6247L16.4095 8.52014C16.7343 8.15205 16.691 7.61092 16.3445 7.30778C15.955 6.98299 15.4138 7.0263 15.089 7.37273L15.0891 7.37275Z" fill="currentColor"></path>
    </g>
    <defs>
      <clipPath id="clip0_2008_12958">
        <rect width="22" height="22" fill="white"></rect>
      </clipPath>
    </defs>
  </symbol>
  <symbol fill="none" xmlns="http://www.w3.org/2000/svg" viewBox="0 0 25 25" id="bell">
    <path fill-rule="evenodd" clip-rule="evenodd" d="M13.0001 3C9.4755 3 6.61824 5.81465 6.61824 9.28686V11.542C6.61824 13.5323 6.19331 15.5004 5.37091 17.3184L5.07446 17.974C4.82431 18.5268 5.23507 19.15 5.8495 19.15H9.65902C9.89302 20.7613 11.2997 22 13 22C14.7005 22 16.1072 20.7613 16.3411 19.15H20.1507C20.7651 19.15 21.1757 18.5268 20.9255 17.974L20.6291 17.3184C19.8069 15.5004 19.3817 13.5323 19.3817 11.542V9.28686C19.3817 5.81474 16.5247 3 13.0001 3ZM15.3629 19.1498H10.6376C10.861 20.234 11.834 21.0498 13.0002 21.0498C14.1667 21.0498 15.1394 20.234 15.3629 19.1498ZM7.58268 9.2864C7.58268 6.33898 10.0081 3.94945 13.0002 3.94945C15.9922 3.94945 18.4178 6.33879 18.4178 9.2864V11.5416C18.4178 13.6652 18.8713 15.765 19.7486 17.7049L19.9726 18.1997H6.02829L6.25225 17.7049C7.12959 15.7651 7.58305 13.6653 7.58305 11.5416L7.58268 9.2864Z" fill="currentColor"></path>
  </symbol>
  <symbol fill="none" xmlns="http://www.w3.org/2000/svg" viewBox="0 0 25 25" id="chev-right">
    <path d="M9.29007 6.00367C9.04993 6.2438 9.04993 6.63311 9.29007 6.87324L14.4815 12.0647C14.7216 12.3048 14.7216 12.6941 14.4815 12.9342L9.29007 18.1256C9.05699 18.3669 9.06043 18.7507 9.29751 18.9877C9.53478 19.225 9.91836 19.2285 10.1596 18.9954L15.351 13.803C15.6966 13.4568 15.8906 12.9878 15.8906 12.4986C15.8906 12.0095 15.6966 11.5403 15.351 11.1941L10.1596 6.0027H10.1594C9.9191 5.76275 9.52979 5.76314 9.28985 6.00327L9.29007 6.00367Z" fill="currentColor"></path>
  </symbol>
  <symbol fill="none" xmlns="http://www.w3.org/2000/svg" viewBox="0 0 25 25" id="chev-left">
    <path d="M15.7099 18.9963C15.9501 18.7562 15.9501 18.3669 15.7099 18.1268L10.5185 12.9353C10.2784 12.6952 10.2784 12.3059 10.5185 12.0658L15.7099 6.87436C15.943 6.63308 15.9396 6.24931 15.7025 6.01225C15.4652 5.77498 15.0816 5.77155 14.8404 6.00462L9.64898 11.197C9.30337 11.5432 9.10938 12.0122 9.10938 12.5014C9.10938 12.9905 9.30336 13.4597 9.64898 13.8059L14.8404 18.9973H14.8406C15.0809 19.2372 15.4702 19.2369 15.7102 18.9967L15.7099 18.9963Z" fill="currentColor"></path>
  </symbol>
  <symbol fill="none" xmlns="http://www.w3.org/2000/svg" viewBox="0 0 25 25" id="chev-down">
    <g transform="rotate(90 12.5 12.5)"> <!-- rotate around the center -->
      <path d="M9.29007 6.00367C9.04993 6.2438 9.04993 6.63311 9.29007 6.87324L14.4815 12.0647C14.7216 12.3048 14.7216 12.6941 14.4815 12.9342L9.29007 18.1256C9.05699 18.3669 9.06043 18.7507 9.29751 18.9877C9.53478 19.225 9.91836 19.2285 10.1596 18.9954L15.351 13.803C15.6966 13.4568 15.8906 12.9878 15.8906 12.4986C15.8906 12.0095 15.6966 11.5403 15.351 11.1941L10.1596 6.0027H10.1594C9.9191 5.76275 9.52979 5.76314 9.28985 6.00327L9.29007 6.00367Z" fill="currentColor"></path>
    </g>
  </symbol>
  <symbol fill="none" xmlns="http://www.w3.org/2000/svg" viewBox="0 0 25 25" id="falling">
    <path d="M3.44438 6.33962C3.68223 6.57746 3.91759 6.81283 4.15542 7.05065L9.68325 12.5785C9.97145 12.8667 10.2694 13.1478 10.548 13.4433C10.5528 13.448 10.5553 13.4505 10.5601 13.4553H9.54155C9.98368 13.0132 10.4256 12.5713 10.8677 12.1291C11.5715 11.4253 12.2755 10.7213 12.9818 10.015L13.4648 9.53207C13.741 9.25589 14.2071 9.25589 14.4833 9.53207C14.7524 9.8012 15.0238 10.0726 15.2929 10.3417C15.9344 10.9832 16.5781 11.6269 17.2196 12.2684C18.0027 13.0515 18.7834 13.8322 19.5667 14.6155L21.5799 16.6287C21.9091 16.9579 22.2429 17.2797 22.5649 17.6137C22.5696 17.6184 22.5744 17.6232 22.5794 17.6282C22.846 17.8948 22.8653 18.385 22.5794 18.6467C22.2912 18.9108 21.8443 18.9326 21.5609 18.6467C21.2917 18.3775 21.0203 18.1061 20.7512 17.837C20.1097 17.1955 19.466 16.5518 18.8246 15.9104C18.0414 15.1272 17.2608 14.3466 16.4774 13.5632L14.4642 11.55C14.135 11.2208 13.7965 10.9014 13.4793 10.5651L13.4648 10.5506H14.4833L13.1571 11.8767C12.4533 12.5806 11.7493 13.2846 11.043 13.9909C10.882 14.1518 10.721 14.3128 10.5601 14.4738C10.2839 14.75 9.81772 14.75 9.54155 14.4738C9.30371 14.236 9.06834 14.0006 8.83052 13.7628C8.26597 13.1982 7.69907 12.6313 7.13452 12.0668C6.44751 11.3798 5.76045 10.6927 5.07573 10.008L3.30283 8.23508C3.01464 7.94688 2.719 7.66325 2.43804 7.37028C2.43327 7.36552 2.43079 7.36304 2.42602 7.35827C2.15938 7.09162 2.14011 6.60143 2.42602 6.33976C2.71175 6.07559 3.15864 6.05404 3.44453 6.33976L3.44438 6.33962Z" fill="currentColor"></path>
    <path d="M16.7702 17.4192H18.5575H21.4092H22.0699L21.3491 18.14V16.3527V13.501V12.8403C21.3491 12.4632 21.6806 12.1028 22.0699 12.1195C22.4615 12.1363 22.7907 12.4367 22.7907 12.8403V14.6277V17.4793V18.14C22.7907 18.5291 22.4615 18.8608 22.0699 18.8608H20.2825H17.4309H16.7702C16.3931 18.8608 16.0326 18.5293 16.0494 18.14C16.0664 17.7483 16.3666 17.4192 16.7702 17.4192Z" fill="currentColor"></path>
  </symbol>
  <symbol fill="none" xmlns="http://www.w3.org/2000/svg" viewBox="0 0 25 25" id="menu">
    <path d="M19.7135 12.4999C19.7135 12.6629 19.6486 12.8193 19.5334 12.9347C19.418 13.0499 19.2616 13.1148 19.0985 13.1148H5.90225C5.56255 13.1148 5.28711 12.8394 5.28711 12.4998C5.28711 12.1601 5.56253 11.8847 5.90225 11.8847H19.0985C19.2616 11.8847 19.418 11.9496 19.5334 12.0649C19.6486 12.1802 19.7135 12.3366 19.7135 12.4999ZM5.90243 7.91611H19.0987C19.4382 7.91611 19.7137 7.64069 19.7137 7.30098C19.7137 6.96147 19.4382 6.68604 19.0987 6.68604H5.90243C5.56273 6.68604 5.28729 6.96145 5.28729 7.30098C5.28729 7.64067 5.56271 7.91611 5.90243 7.91611ZM19.0987 17.0836H5.90243C5.56273 17.0836 5.28729 17.3588 5.28729 17.6985C5.28729 18.0382 5.56271 18.3135 5.90243 18.3135H19.0987C19.4382 18.3135 19.7137 18.0382 19.7137 17.6985C19.7137 17.3588 19.4382 17.0836 19.0987 17.0836Z" fill="currentColor"></path>
  </symbol>
  <symbol fill="none" xmlns="http://www.w3.org/2000/svg" viewBox="0 0 25 29" id="peso">
    <path d="M18.0795 10.8381V12.2443H6.39489V10.8381H18.0795ZM18.0795 12.9347V14.3409H6.39489V12.9347H18.0795ZM12.4034 16.7699H9.28409V15.3636H12.4034C13.1023 15.3636 13.6563 15.2422 14.0653 14.9993C14.4787 14.7521 14.7727 14.4176 14.9474 13.9957C15.1264 13.5696 15.2159 13.0881 15.2159 12.5511C15.2159 12.0142 15.1264 11.5412 14.9474 11.1321C14.7685 10.7187 14.4723 10.397 14.0589 10.1669C13.6456 9.93253 13.0852 9.81534 12.3778 9.81534H9.59091V21.5H8.00568V8.40909H12.3778C13.4006 8.40909 14.2358 8.59233 14.8835 8.95881C15.5313 9.32102 16.0085 9.81534 16.3153 10.4418C16.6222 11.0639 16.7756 11.767 16.7756 12.5511C16.7756 13.3352 16.6222 14.0469 16.3153 14.6861C16.0085 15.321 15.5334 15.8281 14.8899 16.2074C14.2464 16.5824 13.4176 16.7699 12.4034 16.7699Z" fill="currentColor"></path>
  </symbol>
  <symbol fill="none" xmlns="http://www.w3.org/2000/svg" viewBox="0 0 25 25" id="rising">
    <path d="M3.44438 18.655C3.68223 18.4172 3.91759 18.1818 4.15542 17.944L9.68325 12.4161C9.97145 12.1279 10.2694 11.8468 10.548 11.5514C10.5528 11.5466 10.5553 11.5441 10.5601 11.5393H9.54155C9.98368 11.9815 10.4256 12.4234 10.8677 12.8655C11.5715 13.5693 12.2755 14.2733 12.9818 14.9796L13.4648 15.4626C13.741 15.7387 14.2071 15.7387 14.4833 15.4626C14.7524 15.1934 15.0238 14.922 15.2929 14.6529C15.9344 14.0114 16.5781 13.3677 17.2196 12.7263C18.0027 11.9431 18.7834 11.1625 19.5667 10.3791L21.5799 8.36593C21.9091 8.03672 22.2429 7.71495 22.5649 7.38097C22.5696 7.3762 22.5744 7.37143 22.5794 7.36647C22.846 7.09982 22.8653 6.60963 22.5794 6.34796C22.2912 6.08379 21.8443 6.06205 21.5609 6.34796C21.2917 6.61709 21.0203 6.88849 20.7512 7.15763C20.1097 7.79909 19.466 8.44279 18.8246 9.08424C18.0414 9.8674 17.2608 10.6481 16.4774 11.4314L14.4642 13.4446C14.135 13.7738 13.7965 14.0933 13.4793 14.4296L13.4648 14.4441H14.4833L13.1571 13.1179C12.4533 12.4141 11.7493 11.7101 11.043 11.0038C10.882 10.8428 10.721 10.6818 10.5601 10.5208C10.2839 10.2446 9.81772 10.2446 9.54155 10.5208C9.30371 10.7587 9.06834 10.994 8.83052 11.2319C8.26597 11.7964 7.69907 12.3633 7.13452 12.9279C6.44751 13.6149 5.76045 14.3019 5.07573 14.9866L3.30283 16.7595C3.01464 17.0477 2.719 17.3314 2.43804 17.6243C2.43327 17.6291 2.43079 17.6316 2.42602 17.6364C2.15938 17.903 2.14011 18.3932 2.42602 18.6549C2.71175 18.919 3.15864 18.9406 3.44453 18.6549L3.44438 18.655Z" fill="currentColor"></path>
    <path d="M16.7702 7.57539H18.5575H21.4092H22.0699L21.3491 6.85459V8.64194V11.4936V12.1543C21.3491 12.5314 21.6806 12.8918 22.0699 12.8751C22.4615 12.8583 22.7907 12.5579 22.7907 12.1543V10.3669V7.51528V6.85459C22.7907 6.46549 22.4615 6.13379 22.0699 6.13379H20.2825H17.4309H16.7702C16.3931 6.13379 16.0326 6.46529 16.0494 6.85459C16.0664 7.24636 16.3666 7.57539 16.7702 7.57539Z" fill="currentColor"></path>
  </symbol>
  <symbol fill="none" xmlns="http://www.w3.org/2000/svg" viewBox="0 0 25 25" id="user">
    <path d="M21.1489 20.1119C21.1349 20.0203 20.8002 17.8546 20.4578 16.4841C19.7214 13.5386 17.9129 12.6353 16.164 11.7621C16.1606 11.7606 16.1575 11.759 16.1545 11.7571C17.1684 10.7905 17.8037 9.4313 17.8037 7.92334C17.8037 4.99936 15.4249 2.62012 12.5005 2.62012C9.57613 2.62012 7.19728 4.99897 7.19728 7.92334C7.19728 9.4313 7.83263 10.7905 8.84655 11.7571C8.84311 11.759 8.84006 11.7606 8.83701 11.7621C7.08818 12.6355 5.27964 13.5386 4.54316 16.4845C4.2006 17.8544 3.86587 20.0203 3.85215 20.1123C3.82792 20.2695 3.90326 20.4251 4.04116 20.5044C4.17525 20.5809 7.38091 22.3801 12.5006 22.3801C17.6204 22.3801 20.8258 20.5809 20.9601 20.5044C21.098 20.4249 21.1734 20.2693 21.1491 20.1119L21.1489 20.1119ZM7.96624 7.92342C7.96624 5.42307 10.0004 3.38889 12.5008 3.38889C15.0011 3.38889 17.0353 5.42307 17.0353 7.92342C17.0351 10.4238 15.0011 12.4579 12.5008 12.4579C10.0002 12.4579 7.96624 10.4238 7.96624 7.92342ZM12.5008 21.6109C8.35647 21.6109 5.46804 20.3551 4.65506 19.9561C4.75729 19.3234 5.02527 17.7264 5.2885 16.6705C5.93929 14.0679 7.44134 13.3179 9.18025 12.4497C9.28515 12.3971 9.39159 12.3433 9.49744 12.2899C10.3523 12.8795 11.3859 13.227 12.5006 13.227C13.6152 13.227 14.6488 12.8798 15.5037 12.2899C15.6094 12.3433 15.7158 12.3971 15.8209 12.4497C17.5598 13.3183 19.0619 14.0683 19.7126 16.6705C19.9762 17.7264 20.2438 19.323 20.3461 19.9561C19.533 20.3555 16.6449 21.6109 12.5004 21.6109H12.5008Z" fill="currentColor"></path>
  </symbol>
  <symbol fill="none" xmlns="http://www.w3.org/2000/svg" viewBox="0 0 30 30" id="truck">
    <path fill-rule="evenodd" clip-rule="evenodd" d="M19.1615 11.4174V5.10727C19.1615 4.15716 18.3882 3.38379 17.4379 3.38379H4.22346C3.27336 3.38379 2.5 4.15716 2.5 5.10727V15.5599C2.5 15.584 2.50043 15.6081 2.50128 15.6317C2.50043 15.6471 2.5 15.6624 2.5 15.6778V21.4895C2.5 22.4398 3.27336 23.2132 4.22346 23.2132H4.80533C5.12218 23.2132 5.39468 22.9996 5.48316 22.6976C5.88828 21.2686 7.20662 20.2741 8.69471 20.2741C10.1826 20.2741 11.5011 21.2686 11.9062 22.6976C11.9873 22.9996 12.2672 23.2132 12.5839 23.2132H17.4233C17.7402 23.2132 18.0127 22.9996 18.1012 22.6976C18.5063 21.2686 19.8246 20.2741 21.3127 20.2741C22.8006 20.2741 24.1191 21.2686 24.5243 22.6976C24.6053 22.9996 24.8852 23.2132 25.2019 23.2132H25.7838C26.7341 23.2132 27.5074 22.4398 27.4999 21.497V18.5285C27.4999 17.4014 27.1245 16.2376 26.4688 15.3241L24.5758 12.687C24.1485 12.0904 22.9773 11.3758 22.1595 11.3758H22.1448L19.1615 11.4174ZM19.1536 15.7245C19.1328 16.6565 18.3675 17.4087 17.4306 17.4087H4.21622C4.11302 17.4087 4.00983 17.4013 3.90684 17.3791V21.4969C3.90684 21.6662 4.04671 21.8063 4.21622 21.8063H4.28979C5.01178 20.0532 6.75014 18.8672 8.68003 18.8672C10.6099 18.8672 12.3483 20.0532 13.0701 21.8063H16.9079C17.6296 20.0532 19.368 18.8672 21.2979 18.8672C23.2427 18.8597 24.9811 20.0385 25.7028 21.7988H25.7766C25.9459 21.7988 26.086 21.659 26.086 21.4894V18.5209C26.086 17.6885 25.806 16.8194 25.3199 16.149L23.4267 13.512C23.2132 13.2174 22.4618 12.79 22.1597 12.79L19.1618 12.8342V15.5596C19.1618 15.6153 19.159 15.6703 19.1536 15.7245ZM17.7472 5.10706C17.7472 4.93775 17.6073 4.79766 17.4378 4.79766H4.22343C4.05413 4.79766 3.91404 4.93775 3.91404 5.10706V15.5597C3.91404 15.7292 4.05413 15.869 4.22343 15.869H17.4378C17.6073 15.869 17.7472 15.7292 17.7472 15.5597V5.10706Z" fill="currentColor"></path>
    <path fill-rule="evenodd" clip-rule="evenodd" d="M18.5215 23.8245C18.5215 25.3642 19.7735 26.6163 21.3132 26.6163C22.8527 26.6163 24.1049 25.3568 24.1049 23.8245C24.1049 22.285 22.8527 21.0327 21.3132 21.0327C19.7735 21.0327 18.5215 22.285 18.5215 23.8245ZM19.9283 23.8172C19.9283 23.0586 20.5543 22.4398 21.3132 22.4398C22.0718 22.4398 22.6906 23.0586 22.6978 23.8172C22.6978 24.5834 22.079 25.2021 21.3132 25.2021C20.5471 25.2021 19.9283 24.5759 19.9283 23.8172Z" fill="currentColor"></path>
    <path fill-rule="evenodd" clip-rule="evenodd" d="M8.69408 26.6163C7.15463 26.6163 5.90234 25.3642 5.90234 23.8245C5.90234 22.285 7.15457 21.0327 8.69408 21.0327C10.2336 21.0327 11.4858 22.285 11.4858 23.8245C11.4858 25.3567 10.2336 26.6163 8.69408 26.6163ZM8.69408 22.4398C7.93546 22.4398 7.31669 23.0586 7.31669 23.8172C7.31669 24.5759 7.93546 25.2021 8.69408 25.2021C9.4527 25.2021 10.0789 24.5833 10.0789 23.8172C10.0715 23.0586 9.4527 22.4398 8.69408 22.4398Z" fill="currentColor"></path>
  </symbol>
  <symbol fill="none" xmlns="http://www.w3.org/2000/svg" viewBox="0 0 22 22" id="wait">
    <path d="M11.0006 1.138C8.38501 1.138 5.87654 2.17715 4.02716 4.02648C2.17783 5.87599 1.13867 8.38438 1.13867 10.9999C1.13867 13.6154 2.17783 16.1239 4.02716 17.9733C5.87666 19.8228 8.38505 20.8618 11.0006 20.8618C13.6161 20.8618 16.1246 19.8228 17.974 17.9733C19.8235 16.1238 20.8624 13.6154 20.8624 10.9999C20.8586 8.38549 19.8184 5.8793 17.9698 4.03035C16.1211 2.18184 13.6149 1.14156 11.0007 1.1377L11.0006 1.138ZM11.0006 19.4186V19.4188C8.76769 19.4188 6.62634 18.5317 5.04767 16.9529C3.46891 15.3742 2.58199 13.2328 2.58199 11.0001C2.58199 8.76718 3.46891 6.62583 5.04767 5.04716C6.6266 3.4684 8.76782 2.58148 11.0006 2.58148C13.2333 2.58148 15.3748 3.4684 16.9534 5.04716C18.5322 6.62609 19.4193 8.76731 19.4193 11.0001C19.4166 13.2319 18.5289 15.3717 16.9506 16.9499C15.3724 18.5282 13.2325 19.416 11.0007 19.4186L11.0006 19.4186Z" fill="currentColor"></path>
    <path d="M13.1229 3.57248C12.9411 3.5186 12.7454 3.53908 12.5786 3.62921C12.4117 3.71934 12.2875 3.87191 12.233 4.05352L10.3664 10.5959L6.67659 13.824C6.53325 13.9507 6.44581 14.1291 6.43322 14.32C6.42063 14.511 6.48391 14.6991 6.60929 14.8438C6.73618 14.9871 6.91444 15.0746 7.10545 15.0872C7.29629 15.0998 7.48461 15.0365 7.62915 14.9111L11.4777 11.5436C11.5821 11.4518 11.6575 11.3314 11.6942 11.1973L13.6184 4.46241C13.6718 4.27862 13.6493 4.08123 13.5563 3.91404C13.4631 3.74687 13.3072 3.624 13.1229 3.57248Z" fill="currentColor"></path>
  </symbol>
  <symbol fill="none" xmlns="http://www.w3.org/2000/svg" viewBox="0 0 22 22" id="warning">
    <g clip-path="url(#clip0_2008_12955)">
      <path d="M10.9968 0.834961C5.36836 0.834961 0.822266 5.38105 0.822266 11.0095C0.822266 16.638 5.36836 21.1841 10.9968 21.1841C16.6253 21.1841 21.1714 16.638 21.1714 11.0095C21.1716 5.38105 16.6253 0.834961 10.9968 0.834961ZM10.9968 19.8852C6.10441 19.8852 2.12121 15.902 2.12121 11.0095C2.12121 6.11711 6.10437 2.13391 10.9968 2.13391C15.8893 2.13391 19.8725 6.11707 19.8725 11.0095C19.8723 15.902 15.8891 19.8852 10.9968 19.8852Z" fill="currentColor"></path>
      <path d="M11.854 5.41759H10.1319C9.97499 5.41654 9.82475 5.48164 9.718 5.59703C9.61083 5.71388 9.55798 5.87079 9.57275 6.02874L10.0703 11.428C10.0915 11.6565 10.1987 11.8683 10.3701 12.0204C10.5414 12.1723 10.7641 12.2532 10.9929 12.2466C11.2254 12.2564 11.4528 12.1775 11.6293 12.0254C11.8057 11.8735 11.9181 11.6598 11.9433 11.428L12.4131 6.05116C12.4277 5.893 12.3748 5.73609 12.2677 5.61946C12.1651 5.49572 12.0142 5.42228 11.854 5.41748L11.854 5.41759Z" fill="currentColor"></path>
      <path d="M10.8637 16.6083H11.104C11.5035 16.6083 11.8727 16.3945 12.0725 16.0477C12.2722 15.7007 12.2722 15.2732 12.0725 14.9264C11.8727 14.5794 11.5035 14.3657 11.104 14.3657H10.8468C10.4473 14.3657 10.0781 14.5794 9.87834 14.9264C9.67857 15.2732 9.67857 15.7007 9.87834 16.0477C10.0781 16.3945 10.4473 16.6083 10.8468 16.6083H10.8637Z" fill="currentColor"></path>
    </g>
    <defs>
      <clipPath id="clip0_2008_12955">
        <rect width="22" height="22" fill="white"></rect>
      </clipPath>
    </defs>
  </symbol>
  <symbol fill="none" xmlns="http://www.w3.org/2000/svg" viewBox="0 0 22 22" id="wrench">
    <g clip-path="url(#clip0_2008_12957)">
      <mask id="mask0_2008_12957" maskUnits="userSpaceOnUse" x="0" y="0" width="22" height="22">
        <path d="M21.8242 0.214844H0.176132V21.8238H21.8242V0.214844Z" fill="white"></path>
      </mask>
      <g mask="url(#mask0_2008_12957)">
        <path d="M3.1392 21.8236H3.24294C4.10485 21.7922 4.91756 21.4151 5.49794 20.7772L13.7063 11.5768C15.1432 12.148 16.7468 12.1328 18.1724 11.5343C19.5983 10.9358 20.7322 9.80181 21.3308 8.37594C21.9294 6.95023 21.9446 5.34664 21.3733 3.90977C21.2969 3.71255 21.1282 3.56568 20.9223 3.51751C20.7111 3.47521 20.4929 3.54117 20.3405 3.69324L17.4045 6.62921L15.8801 6.09245L15.339 4.56353L18.302 1.64587C18.4497 1.49631 18.5153 1.28432 18.4779 1.07752C18.4296 0.87157 18.2827 0.702884 18.0855 0.626519C16.6499 0.0622109 15.0503 0.0821916 13.6292 0.682246C12.208 1.2823 11.0783 2.41475 10.4815 3.83727C9.88484 5.25975 9.86856 6.85918 10.4364 8.29356L1.16804 16.5964C0.548515 17.1526 0.187148 17.9407 0.170004 18.7732C0.152883 19.6057 0.481526 20.408 1.07789 20.9891C1.62759 21.5289 2.36863 21.8288 3.13889 21.8235L3.1392 21.8236ZM13.5531 10.1701C13.3722 10.1701 13.2001 10.2473 13.0795 10.3819L4.54673 19.9115C4.19963 20.295 3.71069 20.5199 3.19373 20.5339C2.74123 20.5609 2.29809 20.3972 1.97149 20.0829C1.62472 19.749 1.43218 19.2859 1.43992 18.8045C1.44747 18.3232 1.65476 17.8666 2.01209 17.5438L11.6319 8.93419C11.7362 8.84053 11.8067 8.71514 11.8327 8.57751C11.8587 8.43988 11.8389 8.29738 11.7763 8.17199C11.2665 7.15385 11.1501 5.98342 11.4493 4.88471C11.7484 3.786 12.4423 2.83613 13.398 2.21696C14.3536 1.59778 15.504 1.3529 16.6291 1.52877L14.1845 3.96424C14.1001 4.04967 14.0414 4.15709 14.015 4.27425C13.9887 4.39157 13.9959 4.51376 14.0358 4.62723L14.8071 6.81915V6.81898C14.8698 7.00109 15.0129 7.1441 15.1948 7.20687L17.3912 7.98267C17.5028 8.0243 17.6242 8.03336 17.7409 8.00852C17.8575 7.98385 17.9646 7.92628 18.0497 7.84286L20.4715 5.38491C20.6453 6.50747 20.4 7.6547 19.7825 8.60826C19.1649 9.56165 18.2182 10.2546 17.1227 10.5551C16.0272 10.8556 14.8594 10.7426 13.8418 10.2377C13.7522 10.1931 13.6533 10.1699 13.5533 10.1701L13.5531 10.1701Z" fill="currentColor"></path>
      </g>
    </g>
    <defs>
      <clipPath id="clip0_2008_12957">
        <rect width="22" height="22" fill="white"></rect>
      </clipPath>
    </defs>
  </symbol>


    <symbol fill="none" xmlns="http://www.w3.org/2000/svg" viewBox="0 0 35 35" id="finances">
    <path d="M25.0384 12.7955V14.358H11.5795V12.7955H25.0384ZM25.0384 15.0611V16.6236H11.5795V15.0611H25.0384ZM18.4616 19.4077H14.9389V17.5469H18.4616C19.1719 17.5469 19.7377 17.419 20.1591 17.1634C20.5852 16.9029 20.8906 16.5573 21.0753 16.1264C21.2599 15.6908 21.3523 15.2079 21.3523 14.6776C21.3523 14.1378 21.2576 13.6548 21.0682 13.2287C20.8835 12.7978 20.5781 12.4569 20.152 12.206C19.7306 11.955 19.16 11.8295 18.4403 11.8295H15.5142V24.5H13.3267V9.95455H18.4403C19.5862 9.95455 20.5355 10.1629 21.2884 10.5795C22.0459 10.9962 22.6094 11.5597 22.9787 12.2699C23.3527 12.9801 23.5398 13.7803 23.5398 14.6705C23.5398 15.5559 23.3527 16.3561 22.9787 17.071C22.6046 17.786 22.0412 18.3542 21.2884 18.7756C20.5402 19.197 19.598 19.4077 18.4616 19.4077Z" fill="currentColor"></path>
  </symbol>
  <symbol fill="none" xmlns="http://www.w3.org/2000/svg" viewBox="0 0 35 35" id="dashboard">
    <mask id="mask0_2030_11625" maskUnits="userSpaceOnUse" x="0" y="0" width="35" height="35">
      <path d="M0.279297 0.279785H34.7194V34.7199H0.279297V0.279785Z" fill="white"></path>
    </mask>
    <g mask="url(#mask0_2030_11625)">
      <path d="M13.9455 6.125H8.96893C8.21488 6.12571 7.49203 6.42557 6.95897 6.95881C6.42573 7.49187 6.1259 8.21468 6.12518 8.96879V13.9454C6.12589 14.6995 6.42574 15.4224 6.95897 15.9554C7.49203 16.4887 8.21484 16.7885 8.96893 16.7892H13.9455C14.6996 16.7885 15.4224 16.4887 15.9555 15.9554C16.4887 15.4224 16.7885 14.6995 16.7893 13.9454V8.96879C16.7885 8.21473 16.4887 7.49187 15.9555 6.95881C15.4224 6.42556 14.6996 6.12572 13.9455 6.125ZM15.3674 13.9451C15.3668 14.3221 15.2169 14.6835 14.9504 14.95C14.6838 15.2165 14.3224 15.3665 13.9455 15.367H8.96891C8.59197 15.3665 8.23053 15.2165 7.96402 14.95C7.69752 14.6835 7.54757 14.3221 7.54704 13.9451V8.96847C7.54757 8.59152 7.6975 8.23008 7.96402 7.96357C8.23055 7.69706 8.59195 7.54711 8.96891 7.54658H13.9455C14.3224 7.54711 14.6839 7.69704 14.9504 7.96357C15.2169 8.2301 15.3668 8.59151 15.3674 8.96847V13.9451ZM26.0312 6.125H21.0547C20.3008 6.12571 19.5778 6.42557 19.0447 6.95881C18.5115 7.49187 18.2116 8.21468 18.2109 8.96879V13.9454C18.2116 14.6995 18.5115 15.4224 19.0447 15.9554C19.5778 16.4887 20.3008 16.7885 21.0547 16.7892H26.0312C26.7853 16.7885 27.5081 16.4887 28.0414 15.9554C28.5744 15.4224 28.8743 14.6995 28.875 13.9454V8.96879C28.8743 8.21473 28.5744 7.49187 28.0414 6.95881C27.5081 6.42556 26.7853 6.12572 26.0312 6.125ZM27.4531 13.9451C27.4527 14.3221 27.3026 14.6835 27.0361 14.95C26.7696 15.2165 26.4082 15.3665 26.0312 15.367H21.0547C20.6777 15.3665 20.3163 15.2165 20.0498 14.95C19.7833 14.6835 19.6333 14.3221 19.6328 13.9451V8.96847C19.6333 8.59152 19.7832 8.23008 20.0498 7.96357C20.3163 7.69706 20.6777 7.54711 21.0547 7.54658H26.0312C26.4082 7.54711 26.7696 7.69704 27.0361 7.96357C27.3026 8.2301 27.4527 8.59151 27.4531 8.96847V13.9451ZM13.9453 18.2108H8.96875C8.2147 18.2115 7.49185 18.5113 6.95879 19.0446C6.42555 19.5777 6.12572 20.3006 6.125 21.0546V26.0312C6.12571 26.7853 6.42556 27.5081 6.95879 28.0414C7.49185 28.5744 8.21465 28.8743 8.96875 28.875H13.9453C14.6994 28.8743 15.4222 28.5744 15.9553 28.0414C16.4885 27.5081 16.7883 26.7853 16.7891 26.0312V21.0546C16.7884 20.3007 16.4885 19.5777 15.9553 19.0446C15.4222 18.5113 14.6994 18.2115 13.9453 18.2108ZM15.3672 26.0309C15.3666 26.4078 15.2167 26.7693 14.9502 27.0358C14.6837 27.3023 14.3223 27.4524 13.9453 27.4528H8.96873C8.59179 27.4524 8.23035 27.3023 7.96384 27.0358C7.69732 26.7693 7.54739 26.4079 7.54686 26.0309V21.0543C7.54739 20.6773 7.69732 20.3159 7.96384 20.0493C8.23037 19.7828 8.59177 19.6329 8.96873 19.6324H13.9453C14.3222 19.6329 14.6837 19.7828 14.9502 20.0493C15.2167 20.3159 15.3666 20.6773 15.3672 21.0543V26.0309ZM26.0311 18.2108H21.0545C20.3006 18.2115 19.5776 18.5113 19.0445 19.0446C18.5113 19.5777 18.2115 20.3006 18.2107 21.0546V26.0312C18.2115 26.7853 18.5113 27.5081 19.0445 28.0414C19.5776 28.5744 20.3006 28.8743 21.0545 28.875H26.0311C26.7851 28.8743 27.508 28.5744 28.0412 28.0414C28.5743 27.5081 28.8741 26.7853 28.8748 26.0312V21.0546C28.8741 20.3007 28.5743 19.5777 28.0412 19.0446C27.508 18.5113 26.7852 18.2115 26.0311 18.2108ZM27.4529 26.0309C27.4526 26.4078 27.3025 26.7693 27.0359 27.0358C26.7694 27.3023 26.408 27.4524 26.031 27.4528H21.0545C20.6775 27.4524 20.3161 27.3023 20.0496 27.0358C19.7831 26.7693 19.6331 26.4079 19.6326 26.0309V21.0543C19.6331 20.6773 19.7831 20.3159 20.0496 20.0493C20.3161 19.7828 20.6775 19.6329 21.0545 19.6324H26.031C26.408 19.6329 26.7694 19.7828 27.0359 20.0493C27.3025 20.3159 27.4526 20.6773 27.4529 21.0543V26.0309Z" fill="currentColor"></path>
    </g>
  </symbol>
  <symbol fill="none" xmlns="http://www.w3.org/2000/svg" viewBox="0 0 35 35" id="activity-logs">
    <path d="M17.2702 10.2628C17.0041 10.2628 16.7491 10.3683 16.5612 10.5564C16.3731 10.7443 16.2676 10.9993 16.2676 11.2654V17.2808C16.2676 17.5466 16.3731 17.8016 16.5612 17.9897C16.7491 18.1776 17.0041 18.2833 17.2702 18.2833H22.283C22.6412 18.2833 22.9722 18.0921 23.1511 17.782C23.3303 17.4718 23.3303 17.0895 23.1511 16.7794C22.9721 16.4692 22.6412 16.2782 22.283 16.2782H18.2727V11.2653C18.2727 10.9992 18.167 10.7442 17.979 10.5563C17.7909 10.3682 17.536 10.2627 17.2701 10.2627L17.2702 10.2628Z" fill="currentColor"></path>
    <path d="M17.2692 5.25C15.5616 5.24864 13.8733 5.61167 12.3173 6.31497C10.7612 7.0181 9.37305 8.04536 8.2459 9.32799V7.25516C8.2459 6.8968 8.05467 6.56587 7.74451 6.38686C7.43435 6.20768 7.05208 6.20768 6.74194 6.38686C6.43177 6.56585 6.24075 6.89681 6.24075 7.25516V12.2681C6.24075 12.5339 6.34628 12.7889 6.53439 12.977C6.72232 13.1649 6.97729 13.2707 7.24334 13.2707H12.2562C12.6144 13.2707 12.9454 13.0794 13.1243 12.7693C13.3035 12.4591 13.3035 12.0768 13.1243 11.7667C12.9453 11.4565 12.6144 11.2655 12.2562 11.2655H9.26087C10.6893 9.36079 12.7488 8.02682 15.0707 7.50174C17.3929 6.97682 19.826 7.29536 21.9343 8.4002C24.0431 9.50521 25.6899 11.3244 26.58 13.5325C27.4703 15.7406 27.5456 18.1932 26.7928 20.4519C26.0399 22.7103 24.5079 24.6272 22.4711 25.8598C20.4343 27.0923 18.0252 27.5595 15.6752 27.1782C13.3253 26.7967 11.1877 25.5916 9.64491 23.7784C8.10225 21.9652 7.25515 19.6623 7.25515 17.2814C7.25515 16.9231 7.06411 16.5921 6.75396 16.4131C6.4436 16.2339 6.06153 16.2339 5.75119 16.4131C5.44102 16.5921 5.25 16.9231 5.25 17.2814C5.25 19.6615 5.95586 21.988 7.27848 23.967C8.60095 25.9457 10.4808 27.4878 12.6799 28.3979C14.879 29.3082 17.2987 29.5456 19.633 29.0804C21.967 28.6152 24.1108 27.4682 25.7931 25.7842C27.4752 24.1004 28.62 21.9555 29.0829 19.6211C29.5456 17.2863 29.3056 14.8669 28.393 12.6689C27.4806 10.4707 25.9366 8.59238 23.9563 7.2719C21.9761 5.95136 19.649 5.24783 17.2688 5.25037L17.2692 5.25Z" fill="currentColor"></path>
  </symbol>
  <symbol fill="none" xmlns="http://www.w3.org/2000/svg" viewBox="0 0 35 35" id="job-orders">
    <path d="M15.0276 8.55872V8.97989H12.9578C11.7043 8.97989 10.684 10.0326 10.684 11.3259V12.2884C10.5965 12.3184 10.5382 12.3485 10.4507 12.3786L7.56461 13.5817C7.41882 13.6419 7.33135 13.7321 7.27303 13.8825C7.24387 13.9126 5.61127 17.5821 10.6837 20.4997V26.9665C10.6837 28.2598 11.704 29.3125 12.9576 29.3125H25.2887C26.5422 29.3125 27.5625 28.2598 27.5625 26.9665V11.3262C27.5625 10.0328 26.5422 8.98011 25.2887 8.98011H23.2189V8.55871C23.2189 7.86702 22.6649 7.32554 22.0237 7.32554H20.7702C20.7993 7.20521 20.7993 7.11496 20.7993 6.99462C20.7993 6.03219 20.0415 5.25 19.1084 5.25C18.1756 5.25 17.4175 6.03196 17.4175 6.99462C17.4175 7.11496 17.4175 7.2052 17.4467 7.32554H16.1931C15.5519 7.29546 15.0273 7.86681 15.0273 8.55871L15.0276 8.55872ZM8.23507 14.6046L10.888 13.4917C11.0921 13.4015 11.3253 13.4015 11.5292 13.4917L14.2695 14.6046C14.4444 15.2662 14.7652 17.462 11.2378 19.4771C7.73959 17.4618 8.03093 15.2662 8.23501 14.6046H8.23507ZM25.2889 10.153C25.901 10.153 26.3967 10.6644 26.3967 11.2959V26.9362C26.3967 27.5677 25.901 28.0792 25.2889 28.0792L12.9578 28.0794C12.3457 28.0794 11.85 27.568 11.85 26.9364V20.4996C16.9517 17.5819 15.2899 13.9122 15.2608 13.8824C15.2024 13.762 15.0858 13.6417 14.94 13.5815L11.9375 12.3785C11.9083 12.3484 11.85 12.3484 11.8208 12.3484V11.3559C11.8208 10.7243 12.3165 10.2129 12.9286 10.2129H14.9984V10.5739C14.9984 11.2656 15.5524 11.8071 16.1936 11.8071H21.9949C22.6653 11.8071 23.1901 11.2355 23.1901 10.5739V10.2129H25.2892L25.2889 10.153ZM22.0531 8.55902V10.514C22.0531 10.544 22.024 10.544 22.024 10.544H16.2227C16.1935 10.544 16.1935 10.514 16.1935 10.514V8.55902C16.1935 8.52893 16.2227 8.52893 16.2227 8.52893H19.7209H19.75H22.0238C22.053 8.49885 22.053 8.52893 22.053 8.55902H22.0531ZM18.613 6.99493C18.613 6.69409 18.8463 6.45343 19.1379 6.45343C19.4294 6.45343 19.6627 6.69409 19.6627 6.99493C19.6627 7.11526 19.6335 7.23559 19.5461 7.32585H18.7297C18.6714 7.20551 18.613 7.11527 18.613 6.99493Z" fill="currentColor"></path>
    <path d="M13.1621 15.0252C12.9288 14.7846 12.5789 14.7846 12.3459 15.0252L10.8008 16.6194L10.2177 16.0177C9.9844 15.7771 9.63452 15.7771 9.4015 16.0177C9.16825 16.2584 9.16825 16.6194 9.4015 16.8598L10.3926 17.8824C10.5093 18.0028 10.6551 18.0629 10.8008 18.0629C10.9466 18.0629 11.0924 18.0028 11.209 17.8824L13.1913 15.8372C13.3662 15.6569 13.3662 15.2659 13.1621 15.0252L13.1621 15.0252Z" fill="currentColor"></path>
    <path d="M16.4269 12.98C16.1062 12.98 15.8438 13.2507 15.8438 13.5816C15.8438 13.9125 16.1062 14.1833 16.4269 14.1833H22.8693C23.19 14.1833 23.4525 13.9125 23.4525 13.5816C23.4525 13.2507 23.19 12.98 22.8693 12.98H16.4269Z" fill="currentColor"></path>
    <path d="M15.8438 15.8077C15.8438 16.1386 16.1062 16.4094 16.4269 16.4094H24.3564C24.6771 16.4094 24.9395 16.1386 24.9395 15.8077C24.9395 15.4768 24.6771 15.2061 24.3564 15.2061H16.4269C16.1064 15.2061 15.8438 15.4768 15.8438 15.8077Z" fill="currentColor"></path>
    <path d="M24.3853 17.4321H16.4269C16.1062 17.4321 15.8438 17.7029 15.8438 18.0338C15.8438 18.3647 16.1062 18.6355 16.4269 18.6355H24.3564C24.6771 18.6355 24.9395 18.3647 24.9395 18.0338C24.9395 17.7029 24.7063 17.4321 24.3858 17.4321H24.3853Z" fill="currentColor"></path>
    <path d="M24.3853 19.6577H16.4269C16.1062 19.6577 15.8438 19.9285 15.8438 20.2594C15.8438 20.5903 16.1062 20.861 16.4269 20.861H24.3564C24.6771 20.861 24.9395 20.5903 24.9395 20.2594C24.9395 19.9282 24.7063 19.6577 24.3858 19.6577H24.3853Z" fill="currentColor"></path>
    <path d="M24.3853 21.8535H16.4269C16.1062 21.8535 15.8438 22.1243 15.8438 22.4552C15.8438 22.7861 16.1062 23.0568 16.4269 23.0568H24.3564C24.6771 23.0568 24.9395 22.7861 24.9395 22.4552C24.9395 22.1243 24.7063 21.8535 24.3858 21.8535H24.3853Z" fill="currentColor"></path>
    <path d="M24.3853 24.0791H16.4269C16.1062 24.0791 15.8438 24.3499 15.8438 24.6808C15.8438 25.0117 16.1062 25.2824 16.4269 25.2824H24.3564C24.6771 25.2824 24.9395 25.0117 24.9395 24.6808C24.9395 24.3499 24.7063 24.0791 24.3858 24.0791H24.3853Z" fill="currentColor"></path>
  </symbol>
  <symbol fill="none" xmlns="http://www.w3.org/2000/svg" viewBox="0 0 35 35" id="transactions">
    <path d="M22.6965 11.0784C22.133 10.8499 21.9013 10.6995 21.9013 10.4639C21.9013 10.2637 22.0399 10.0635 22.4711 10.0635C22.9484 10.0635 23.2528 10.2277 23.4258 10.3068L23.6178 9.49887C23.3995 9.38458 23.1006 9.28394 22.6568 9.26347L22.6566 8.63428H22.0071V9.3132C21.2978 9.46352 20.8874 9.95692 20.8874 10.5851C20.8874 11.2787 21.371 11.6352 22.0804 11.8921C22.5705 12.0708 22.7825 12.2426 22.7825 12.5143C22.7825 12.8004 22.5243 12.9578 22.1467 12.9578C21.7156 12.9578 21.3252 12.8074 21.047 12.6433L20.8477 13.4795C21.0995 13.6369 21.5298 13.7656 21.9744 13.7872V14.4661H22.6239V13.7373C23.3865 13.5938 23.8033 13.0516 23.8033 12.4147C23.8041 11.771 23.4854 11.3782 22.6965 11.0784Z" fill="currentColor"></path>
    <path d="M28.2554 13.3182C28.5016 12.9805 28.4929 12.4967 28.2044 12.1865L22.0061 5.50203C21.6945 5.16599 21.191 5.16599 20.8793 5.50203L13.941 12.9845H6.92179C6.88284 12.9845 6.84765 13.0018 6.81028 13.0069C6.76876 13.0128 6.72902 13.018 6.68908 13.0318C6.61336 13.0568 6.54574 13.0962 6.48188 13.1435C6.46191 13.1583 6.43719 13.1617 6.419 13.1779C6.41426 13.1821 6.41268 13.189 6.40793 13.1943C6.32588 13.2691 6.25807 13.3602 6.20943 13.4659C6.19835 13.49 6.19756 13.5175 6.18867 13.5425C6.16395 13.612 6.13766 13.68 6.12975 13.7574C6.12816 13.7747 6.1337 13.7892 6.1337 13.8065C6.13212 13.819 6.125 13.8301 6.125 13.844V25.7969C6.125 26.205 6.39033 26.5566 6.76082 26.6383L18.714 29.2946C18.7674 29.3065 18.8218 29.3125 18.8751 29.3125C19.0568 29.3125 19.2354 29.2455 19.3787 29.1191C19.5644 28.956 19.6719 28.7119 19.6719 28.4532V26.6562H27.6407C28.0806 26.6562 28.4375 26.2711 28.4375 25.7969V13.844C28.4375 13.6421 28.3634 13.4649 28.255 13.318L28.2554 13.3182ZM18.0783 25.7973V27.3993L7.71896 25.0969V14.8983L17.8399 17.1472L18.0781 17.2007L18.0783 25.7973ZM18.0822 15.447L14.6246 14.6788L21.4435 7.32515L26.5151 12.7945L24.0551 15.4475L18.0822 15.447ZM26.8442 24.9382H19.6721V23.2976H25.2503C25.6902 23.2976 26.0471 22.9126 26.0471 22.4384C26.0471 21.964 25.69 21.5791 25.2503 21.5791H19.6721V20.7198H25.2503C25.6902 20.7198 26.0471 20.3348 26.0471 19.8606C26.0471 19.3861 25.69 19.0013 25.2503 19.0013H19.6721V17.3608H26.8442V24.9382ZM26.8442 15.6413H26.2067L26.8442 14.9014V15.6413Z" fill="currentColor"></path>
  </symbol>
  <symbol fill="none" xmlns="http://www.w3.org/2000/svg" viewBox="0 0 35 35" id="other-income">
    <path d="M20.678 24.6143H22.1999V20.1305H20.678V24.6143ZM28 7.74692L26.9232 6.65334L24.9444 8.66608L24.9442 4.2002H23.4194V8.675L21.4405 6.66226L20.3638 7.74686L24.1702 11.6334L28 7.74692ZM24.1703 13.9537H18.0908V9.14772C18.0908 8.94262 18.0102 8.746 17.8672 8.60117C17.7241 8.45658 17.5303 8.37568 17.3284 8.37637H10.4922C9.56726 8.38027 8.68118 8.75517 8.02708 9.41949C7.37297 10.0838 7.00381 10.9835 7 11.9231V27.2535C7.00384 28.1931 7.37297 29.0929 8.02708 29.7573C8.68118 30.4214 9.56726 30.7966 10.4922 30.8002H24.1698C25.0946 30.7965 25.9807 30.4214 26.6348 29.7573C27.2889 29.093 27.6581 28.1931 27.6619 27.2535V17.5004C27.6619 16.5597 27.2939 15.6575 26.6391 14.9925C25.9841 14.3272 25.0957 13.9537 24.1698 13.9537L24.1703 13.9537ZM10.4927 9.92204H16.5693V13.9537H10.4927C9.95432 13.9745 9.43083 13.772 9.04255 13.3925C8.65446 13.0132 8.43512 12.4896 8.43512 11.9423C8.43512 11.3951 8.65444 10.8715 9.04255 10.492C9.43087 10.1127 9.95434 9.91011 10.4927 9.93097V9.92204ZM26.1608 27.2535C26.1599 27.7863 25.9512 28.2971 25.5802 28.6738C25.2093 29.0506 24.7063 29.2625 24.1817 29.2635H10.4926C9.96526 29.2665 9.45827 29.0563 9.08368 28.6794C8.70913 28.3022 8.49768 27.7893 8.49635 27.2535V14.8634C9.08253 15.2754 9.77955 15.4943 10.4926 15.49H24.1702C24.6948 15.4909 25.1975 15.7028 25.5684 16.0796C25.9394 16.4563 26.1483 16.9671 26.149 17.4999L26.1608 27.2535Z" fill="currentColor"></path>
  </symbol>
  <symbol fill="none" xmlns="http://www.w3.org/2000/svg" viewBox="0 0 35 35" id="users">
    <path d="M16 5.6875C13.1625 5.6875 10.8438 8.00618 10.8438 10.8437C10.8438 13.6812 13.1625 15.9998 16 15.9998C18.8376 15.9998 21.1563 13.6812 21.1563 10.8437C21.1563 8.00618 18.8376 5.6875 16 5.6875ZM16 7.4062C17.9088 7.4062 19.4376 8.93496 19.4376 10.8437C19.4376 12.7524 17.9088 14.2811 16 14.2811C14.0913 14.2811 12.5625 12.7524 12.5625 10.8437C12.5625 8.93496 14.0913 7.4062 16 7.4062Z" fill="currentColor"></path>
    <path d="M13.4221 17.7188C9.15212 17.7188 5.6875 21.1831 5.6875 25.4531V27.1718C5.6875 27.3998 5.77812 27.6183 5.93931 27.7795C6.10029 27.9407 6.31906 28.0311 6.54678 28.0311H15.8692C16.0993 28.0345 16.321 27.9454 16.4848 27.7838C16.6485 27.6224 16.7408 27.4019 16.7408 27.1719C16.7408 26.9418 16.6485 26.7213 16.4848 26.5599C16.321 26.3983 16.0993 26.3092 15.8692 26.3126H7.40648V25.4534C7.40648 22.1059 10.0745 19.4378 13.4222 19.4378H16.8732V19.4376C17.1032 19.4408 17.325 19.3516 17.4887 19.1902C17.6525 19.0286 17.7448 18.8082 17.7448 18.5781C17.7448 18.348 17.6525 18.1276 17.4887 17.9662C17.325 17.8046 17.1032 17.7156 16.8732 17.7188L13.4221 17.7188Z" fill="currentColor"></path>
    <path d="M23.7229 17.7188C23.2436 17.7264 22.8653 18.116 22.8719 18.5897V19.5247C22.325 19.6375 21.8154 19.8573 21.3647 20.1575L20.705 19.498C20.5024 19.2897 20.2726 19.2113 20.0555 19.2228C19.4046 19.2575 18.8647 20.1057 19.4899 20.7132L20.153 21.3761C19.8543 21.8272 19.6346 22.3362 19.5236 22.8833H18.5903C17.4282 22.8669 17.4282 24.6184 18.5903 24.602H19.5267C19.6391 25.144 19.8579 25.6482 20.1544 26.0957L19.4864 26.7637C18.6532 27.5737 19.8916 28.8121 20.7016 27.9789L21.3679 27.3126C21.8178 27.6117 22.3261 27.8311 22.8718 27.9436V28.8786C22.8553 30.0406 24.6069 30.0406 24.5905 28.8786V27.9453C25.1357 27.8338 25.6429 27.6138 26.0927 27.3159L26.7641 27.9874C27.1018 28.3347 27.6609 28.3347 27.9944 27.9908C28.3276 27.6464 28.3193 27.1027 27.9788 26.7723L27.3108 26.1043C27.61 25.655 27.8289 25.1472 27.9419 24.6022H28.8784C29.3628 24.609 29.7571 24.2137 29.7496 23.7344C29.741 23.2553 29.3523 22.8771 28.8784 22.8835H27.9451C27.8334 22.3334 27.6135 21.821 27.3124 21.3679L27.9754 20.705C28.3229 20.3673 28.3229 19.8082 27.9754 19.4748C27.8042 19.3089 27.5837 19.2276 27.3645 19.2298C27.1453 19.234 26.9281 19.3208 26.7634 19.4899L26.0986 20.1545C25.6485 19.8554 25.14 19.6349 24.5935 19.5232V18.5899C24.602 18.1055 24.2048 17.7113 23.7257 17.719L23.7229 17.7188ZM23.7348 21.156C25.1689 21.156 26.3128 22.3001 26.3128 23.7339C26.3128 25.1678 25.1689 26.3119 23.7348 26.3119C22.3007 26.3119 21.1568 25.1678 21.1568 23.7339C21.1568 22.3001 22.3007 21.156 23.7348 21.156Z" fill="currentColor"></path>
  </symbol>

  <symbol fill="none" xmlns="http://www.w3.org/2000/svg" viewBox="0 0 17 17" id="search">
    <path d="M14.3735 13.6655L11.3782 10.6702C12.0867 9.80463 12.5132 8.69956 12.5132 7.49635C12.5132 4.7292 10.262 2.47803 7.49488 2.47803C4.72774 2.47816 2.47656 4.72937 2.47656 7.49635C2.47656 10.2635 4.72777 12.5147 7.49488 12.5147C8.6981 12.5147 9.80316 12.0882 10.6686 11.3797L13.6639 14.3749C13.86 14.571 14.1775 14.571 14.3735 14.3749C14.5696 14.1788 14.5696 13.8613 14.3735 13.6654L14.3735 13.6655ZM3.47986 7.49638C3.47986 5.28279 5.281 3.48179 7.49445 3.48179C9.7079 3.48179 11.509 5.28293 11.509 7.49638C11.509 9.70983 9.7079 11.511 7.49445 11.511C5.281 11.511 3.47986 9.70983 3.47986 7.49638Z" fill="currentColor"></path>
  </symbol>

  <symbol fill="none" xmlns="http://www.w3.org/2000/svg" viewBox="0 0 962 962" id="calendar">
    <path opacity="0.74" d="M256.5 82.5H689.5V7.5H797.5V82.5H807.5C868.804 82.5 918.5 132.196 918.5 193.5V843.5C918.5 904.804 868.804 954.5 807.5 954.5H154.5C93.1964 954.5 43.5 904.804 43.5 843.5V193.5C43.5 134.209 89.9863 85.777 148.5 82.6602V7.5H256.5V82.5ZM120.5 872.5H842.5V297.5H120.5V872.5Z" fill="#606161ff"></path>
  </symbol>
</svg>